<?xml version="1.0" encoding="utf-8"?>
<!-- Generator: Adobe Illustrator 25.2.1, SVG Export Plug-In . SVG Version: 6.00 Build 0)  -->
<svg version="1.1" id="Layer_1" xmlns="http://www.w3.org/2000/svg" xmlns:xlink="http://www.w3.org/1999/xlink" x="0px" y="0px"
	 viewBox="0 0 1080 1080" style="enable-background:new 0 0 1080 1080;" xml:space="preserve">
<style type="text/css">
	.st0{fill:#FFFFFF;}
</style>
<image style="overflow:visible;" width="1109" height="432" xlink:href="E9B54C57.jpg"  transform="matrix(1.743 0 0 1.743 2012 -1042)">
</image>
<g>
	<path class="st0" d="M-1656.5,663.1l8.9,119.9l160.6-0.3V662.5L-1656.5,663.1z M-1964.8,338l84.1,972.6L-1490,1418l393.2-109.1
		l81.6-970.9H-1964.8z M-1177.3,1251.1l-309.6,86.4v-121.1l-3.1,0.9l-242.5-66.4l-16.1-191.5h119.9l7.2,98.4l131.5,31.5l3.1-0.7
		V902.1H-1754l-34-363.3h301.1V418.5h381.3L-1177.3,1251.1z M-1647.5,783l160.6-0.3V662.5l-169.5,0.7L-1647.5,783z M-1656.5,663.1
		l8.9,119.9l160.6-0.3V662.5L-1656.5,663.1z"/>
	<polygon class="st0" points="-1486.9,782.7 -1213.5,782.1 -1245.7,1149.1 -1486.9,1216.4 -1486.9,1088.6 -1356.7,1057.8 
		-1344.2,902.1 -1486.9,902.1 	"/>
	<polygon class="st0" points="-1192,538.7 -1203.6,661.3 -1486.9,662.5 -1486.9,538.7 	"/>
</g>
<g>
	<path class="st0" d="M-2141.8-875l84.1,972.6L-1667,205l393.2-109.1l81.6-970.9H-2141.8z M-1354.3,38.1l-309.6,86.4V-1.7
		L-1909.8-71l-12.5-187.9h114.5l12.5,91.3l131.4,27.4v-181.3h-267.4l-12.5-111l276.8-120.4l-285.8,0.5l-13.4-117.2h302.3v-124.8
		h381.3L-1354.3,38.1z"/>
	<polygon class="st0" points="-1367.8,-554.2 -1636.9,-440.6 -1388.5,-440.6 -1419.4,-78.2 -1659.3,-0.3 -1663.9,-1.7 
		-1663.9,-140.2 -1659.3,-139.3 -1535.8,-160.5 -1517.9,-321.6 -1663.9,-321.6 -1663.9,-669.7 -1367.8,-669.7 	"/>
</g>
<g>
	<path class="st0" d="M-1105.8-984l84.1,972.6L-631,96l393.2-109.1l81.6-970.9H-1105.8z M-674.8-107.5L-895-170.2l-16.1-189.7
		l77,14.3l3.6,68l69.8,17.9l-16.1-520.8h102V-107.5z M-318.3-70.9l-309.6,86.4v-918.9h381.3L-318.3-70.9z"/>
	<polygon class="st0" points="-609,-780.5 -331.2,-780.5 -343.7,-662.4 -501.2,-662.4 -506.6,-537.1 -356.3,-537.1 -386.7,-172 
		-609,-107.5 -609,-235.4 -470.1,-267.4 -458.3,-428 -609,-419.1 	"/>
</g>
<g>
	<path class="st0" d="M540.3,507.9H437.1V355.5H539c29.7,0,52.4,6.7,68.1,20.2c15.7,13.5,23.6,32.2,23.6,56c0,23.8-7.9,42.5-23.6,56
		C591.4,501.2,569.1,507.9,540.3,507.9z"/>
	<path class="st0" d="M642.9,642.9c0,25.6-8.5,45.6-25.6,60c-17.1,14.4-40.9,21.6-71.5,21.6H437.1v-166h106.6
		c30.1,0,54.2,7.5,72.2,22.6C633.9,596.2,642.9,616.8,642.9,642.9z"/>
	<path class="st0" d="M961.7,275v-60.5c0-64.1-52.5-116.6-116.6-116.6H234.6c-64.1,0-116.6,52.5-116.6,116.6v65.9
		C101.5,521.2,0,498.3,0,498.3v63.8l0.1,0v6.4c0,0,100.9-22.7,117.8,215.8v81.2c0,64.1,52.5,116.6,116.6,116.6h610.5
		c64.1,0,116.6-52.5,116.6-116.6v-75.9c15.8-244.1,118.2-221.1,118.2-221.1v-6.4l0.1,0v-63.8C1080,498.3,976.9,521.6,961.7,275z
		 M686.1,713.4c-12.1,19.1-29.8,34.2-53,45.2c-23.2,11-50.5,16.5-82,16.5H375.7V304.9h168.7c31.9,0,59.1,5.3,81.6,15.9
		c22.5,10.6,39.4,24.8,50.6,42.8c11.2,18,16.9,38.2,16.9,60.7c0,27.9-7.5,50.9-22.6,69.1c-15.1,18.2-35,31.4-59.7,39.5
		c17.1,2.7,32.7,9.7,46.9,20.9c14.2,11.2,25.4,25.2,33.7,41.8c8.3,16.6,12.5,34.4,12.5,53.3C704.3,672.8,698.2,694.3,686.1,713.4z"
		/>
</g>
</svg>
