<?xml version="1.0" encoding="utf-8"?>
<!-- Generator: Adobe Illustrator 25.2.1, SVG Export Plug-In . SVG Version: 6.00 Build 0)  -->
<svg version="1.1" id="Layer_1" xmlns="http://www.w3.org/2000/svg" xmlns:xlink="http://www.w3.org/1999/xlink" x="0px" y="0px"
	 viewBox="0 0 1080 1080" style="enable-background:new 0 0 1080 1080;" xml:space="preserve">
<style type="text/css">
	.st0{fill:#FFFFFF;}
	.st1{opacity:0.49;fill:#FFFFFF;}
</style>
<image style="overflow:visible;" width="1109" height="432" xlink:href="73D0FF04.jpg"  transform="matrix(1.743 0 0 1.743 2012 -1042)">
</image>
<g>
	<path class="st0" d="M-1656.5,663.1l8.9,119.9l160.6-0.3V662.5L-1656.5,663.1z M-1964.8,338l84.1,972.6L-1490,1418l393.2-109.1
		l81.6-970.9H-1964.8z M-1177.3,1251.1l-309.6,86.4v-121.1l-3.1,0.9l-242.5-66.4l-16.1-191.5h119.9l7.2,98.4l131.5,31.5l3.1-0.7
		V902.1H-1754l-34-363.3h301.1V418.5h381.3L-1177.3,1251.1z M-1647.5,783l160.6-0.3V662.5l-169.5,0.7L-1647.5,783z M-1656.5,663.1
		l8.9,119.9l160.6-0.3V662.5L-1656.5,663.1z"/>
	<polygon class="st0" points="-1486.9,782.7 -1213.5,782.1 -1245.7,1149.1 -1486.9,1216.4 -1486.9,1088.6 -1356.7,1057.8 
		-1344.2,902.1 -1486.9,902.1 	"/>
	<polygon class="st0" points="-1192,538.7 -1203.6,661.3 -1486.9,662.5 -1486.9,538.7 	"/>
</g>
<g>
	<path class="st0" d="M-2141.8-875l84.1,972.6L-1667,205l393.2-109.1l81.6-970.9H-2141.8z M-1354.3,38.1l-309.6,86.4V-1.7
		L-1909.8-71l-12.5-187.9h114.5l12.5,91.3l131.4,27.4v-181.3h-267.4l-12.5-111l276.8-120.4l-285.8,0.5l-13.4-117.2h302.3v-124.8
		h381.3L-1354.3,38.1z"/>
	<polygon class="st0" points="-1367.8,-554.2 -1636.9,-440.6 -1388.5,-440.6 -1419.4,-78.2 -1659.3,-0.3 -1663.9,-1.7 
		-1663.9,-140.2 -1659.3,-139.3 -1535.8,-160.5 -1517.9,-321.6 -1663.9,-321.6 -1663.9,-669.7 -1367.8,-669.7 	"/>
</g>
<g>
	<path class="st0" d="M-1105.8-984l84.1,972.6L-631,96l393.2-109.1l81.6-970.9H-1105.8z M-674.8-107.5L-895-170.2l-16.1-189.7
		l77,14.3l3.6,68l69.8,17.9l-16.1-520.8h102V-107.5z M-318.3-70.9l-309.6,86.4v-918.9h381.3L-318.3-70.9z"/>
	<polygon class="st0" points="-609,-780.5 -331.2,-780.5 -343.7,-662.4 -501.2,-662.4 -506.6,-537.1 -356.3,-537.1 -386.7,-172 
		-609,-107.5 -609,-235.4 -470.1,-267.4 -458.3,-428 -609,-419.1 	"/>
</g>
<g>
	<path class="st0" d="M540-0.4L72,269.8v540.4l22,12.7l162.2,93.7l17,9.8l266.8,154L781.5,941L1008,810.2V269.8L540-0.4z
		 M937.1,769.3L746.2,879.5L540,998.6L359.8,894.5l-79.6-46l-137.3-79.3V310.7L540,81.4l397.1,229.3V769.3z"/>
	<path class="st1" d="M280.2,848.5l-137.3-79.3V457.8c67.4-83.9,143.6-123.1,209.3-18.8c14.5,22.9,27.4,45,39.2,66
		c4.7,8.4,9.2,16.7,13.5,24.7c106.8,199.1,105.4,290,258.3,110.6c1.1-1.3,2.2-2.5,3.2-3.8C779.7,504.2,856.7,447.4,937.1,496v273.3
		L746.2,879.5L540,998.6L359.8,894.5L280.2,848.5z"/>
	<path class="st1" d="M937.1,456.6l-0.2,343.9l-404,219.7L359.8,894.5l-79.6-46l-137.3-79.3v-26.5c71.3-112,152.9-217.8,216.4-236.5
		c10.4-3,21.1-3.3,32.1-1.3c7.7,1.3,15.4,3.8,23.2,7c46.1,19,95.5,66,143.1,93.6c26.5,15.3,53.6-8.3,82.9-44.8
		c45.2-56.2,95.8-142.8,158.1-164.3C829.6,385.8,884.6,417.3,937.1,456.6z"/>
	<path class="st1" d="M746.2,879.5L540,998.6L359.8,894.5l-79.6-46l54.3-154.4c0,0,28.6-85.8,70.4-164.4c3.2-6,6.4-11.9,9.7-17.7
		c33-58.1,72.8-108.2,112.9-110.6c40.7-2.3,80.5,72,113.1,159.3c9.2,24.7,17.8,50.4,25.7,75.8c15.3,48.8,27.8,96.1,36.6,131.6
		c9.1,36.7,14.2,60.7,14.2,60.7L746.2,879.5z"/>
</g>
</svg>
