<?xml version="1.0" encoding="utf-8"?>
<!-- Generator: Adobe Illustrator 25.2.1, SVG Export Plug-In . SVG Version: 6.00 Build 0)  -->
<svg version="1.1" id="Layer_1" xmlns="http://www.w3.org/2000/svg" xmlns:xlink="http://www.w3.org/1999/xlink" x="0px" y="0px"
	 viewBox="0 0 1080 1080" style="enable-background:new 0 0 1080 1080;" xml:space="preserve">
<style type="text/css">
	.st0{fill:#FFFFFF;}
	.st1{opacity:0.75;fill:#FFFFFF;}
	.st2{opacity:0.36;fill:#FFFFFF;}
	.st3{opacity:0.5;fill:#FFFFFF;}
</style>
<g>
	<path class="st0" d="M410.3,614.9l130.6-75.4l127,73.6c-25.6,44.9-74,75.2-129.4,75.2C484,688.3,436.2,658.8,410.3,614.9z"/>
	<path class="st1" d="M1004,807.9l-464,267.9L76,807.9l198.5-114.6c53,90.8,151.4,151.8,264.1,151.8c113.3,0,212.3-61.7,265-153.3
		L1004,807.9z"/>
	<rect x="839.8" y="522.9" class="st2" width="36.6" height="36.6"/>
	<path class="st3" d="M803.9,387.6L668.1,466l-127.2,73.4l127,73.6l135.7,78.6L1004,807.9V272.1L803.9,387.6z M930.4,522.9h-22.6
		v36.6h22.6v31.3h-22.6v22.6h-31.3v-22.6h-36.6v22.6h-31.3v-22.6h-26.1v-31.3h26.1v-36.6h-26.1v-31.3h26.1v-26.1h31.3v26.1h36.6
		v-26.1h31.3v26.1h22.6V522.9z"/>
	<path class="st0" d="M668.1,466l-127.2,73.4l-130.6,75.4c-13.1-22.1-20.6-47.9-20.6-75.4c0-82.1,66.8-148.9,148.9-148.9
		C594,390.6,642.5,421,668.1,466z"/>
	<path class="st0" d="M1004,272.1L803.9,387.6c-52.7-91.9-151.8-153.8-265.3-153.8C369.8,233.9,233,370.7,233,539.5
		c0,56.1,15.1,108.6,41.5,153.8L76,807.9V272.1L540,4.2L1004,272.1z"/>
</g>
</svg>
