<?xml version="1.0" encoding="utf-8"?>
<!-- Generator: Adobe Illustrator 25.2.1, SVG Export Plug-In . SVG Version: 6.00 Build 0)  -->
<svg version="1.1" id="Layer_1" xmlns="http://www.w3.org/2000/svg" xmlns:xlink="http://www.w3.org/1999/xlink" x="0px" y="0px"
	 viewBox="0 0 1080 1080" style="enable-background:new 0 0 1080 1080;" xml:space="preserve">
<style type="text/css">
	.st0{fill:#FFFFFF;}
</style>
<image style="overflow:visible;" width="1109" height="432" xlink:href="EF95E53E.jpg"  transform="matrix(1.743 0 0 1.743 2012 -1042)">
</image>
<path class="st0" d="M-1304.9-1687l47,543.4l218.3,60l219.7-61l45.6-542.4H-1304.9z M-864.9-1176.9l-173,48.3V-1642h213
	L-864.9-1176.9z"/>
<g>
	<path class="st0" d="M-1656.5,663.1l8.9,119.9l160.6-0.3V662.5L-1656.5,663.1z M-1964.8,338l84.1,972.6L-1490,1418l393.2-109.1
		l81.6-970.9H-1964.8z M-1177.3,1251.1l-309.6,86.4v-121.1l-3.1,0.9l-242.5-66.4l-16.1-191.5h119.9l7.2,98.4l131.5,31.5l3.1-0.7
		V902.1H-1754l-34-363.3h301.1V418.5h381.3L-1177.3,1251.1z M-1647.5,783l160.6-0.3V662.5l-169.5,0.7L-1647.5,783z M-1656.5,663.1
		l8.9,119.9l160.6-0.3V662.5L-1656.5,663.1z"/>
	<polygon class="st0" points="-1486.9,782.7 -1213.5,782.1 -1245.7,1149.1 -1486.9,1216.4 -1486.9,1088.6 -1356.7,1057.8 
		-1344.2,902.1 -1486.9,902.1 	"/>
	<polygon class="st0" points="-1192,538.7 -1203.6,661.3 -1486.9,662.5 -1486.9,538.7 	"/>
</g>
<g>
	<path class="st0" d="M65.2,0l84.1,972.6L540,1080l393.2-109.1L1014.8,0H65.2z M852.7,913.1l-309.6,86.4V873.3L297.2,804
		l-12.5-187.9h114.5l12.5,91.3l131.4,27.4V553.4H275.7l-12.5-111L540,322.1l-285.8,0.5l-13.4-117.2h302.3V80.5h381.3L852.7,913.1z"
		/>
	<polygon class="st0" points="839.2,320.8 570.1,434.4 818.5,434.4 787.6,796.8 547.7,874.7 543.1,873.3 543.1,734.8 547.7,735.7 
		671.2,714.5 689.1,553.4 543.1,553.4 543.1,205.3 839.2,205.3 	"/>
</g>
<g>
	<polygon class="st0" points="695.5,-1172.5 752.5,-1172.5 752.5,-796.4 629.5,-831.5 620.5,-937.5 663.5,-929.5 665.5,-891.5 
		704.5,-881.5 	"/>
	<polygon class="st0" points="778.3,-1172.5 933.5,-1172.5 926.5,-1106.5 838.5,-1106.5 835.5,-1036.5 919.5,-1036.5 902.5,-832.5 
		778.3,-796.4 778.3,-867.9 855.9,-885.8 862.5,-975.5 778.3,-970.6 	"/>
</g>
</svg>
