<?xml version="1.0" encoding="utf-8"?>
<!-- Generator: Adobe Illustrator 25.2.1, SVG Export Plug-In . SVG Version: 6.00 Build 0)  -->
<svg version="1.1" id="Layer_1" xmlns="http://www.w3.org/2000/svg" xmlns:xlink="http://www.w3.org/1999/xlink" x="0px" y="0px"
	 viewBox="0 0 1080 1080" style="enable-background:new 0 0 1080 1080;" xml:space="preserve">
<style type="text/css">
	.st0{fill:#2D2D2D;}
	.st1{fill:#0D9276;}
	.st2{fill:#FAFAFA;}
</style>
<circle class="st0" cx="1903.5" cy="245.5" r="192.5"/>
<path d="M1926.5,165.1v55.1h0.2v-55.1H1926.5z M1926.5,258.5v20c0.1-2.3,0.2-4.6,0.2-7v-13H1926.5z"/>
<path d="M1872.3,165v111c0.2-1.5,0.2-3,0.2-4.6V165H1872.3z"/>
<path class="st1" d="M1987.5-640.6c16.2-4.9,28.5-13.1,36.9-24.7c8.3-11.6,12.5-24.8,12.5-39.6c0-13.1-3.1-24.9-9.2-35.6
	c-6.1-10.6-15.3-19-27.7-25.2c-12.3-6.1-27.3-9.2-44.8-9.2H1918v-0.2h-150v45h96.6v106.5c0,1.6-0.1,3.1-0.2,4.6
	c-0.6,5.8-2.3,10.4-5.2,13.8c-3.6,4.2-8.7,6.3-15.2,6.3c-7.2,0-12.7-2.4-16.5-7.1c-3.8-4.7-5.7-11.8-5.7-21H1768
	c0,24.5,7.1,43.3,21.2,56.7c14.1,13.3,32.9,19.9,56.3,19.9c7.7,0,14.8-0.7,21.3-2.2c12.6-2.8,23.3-8.4,32-16.8
	c11.8-11.4,18.4-27,19.6-47.1v-20h13l46.2,83.9h61.1L1987.5-640.6z M1974.3-682.1c-5,4.9-12.4,7.3-22.3,7.3h-33.6v-55.1h33.6
	c9.9,0,17.3,2.4,22.3,7.3c5,4.9,7.4,11.5,7.4,19.9C1981.8-693.8,1979.3-686.9,1974.3-682.1z"/>
<circle class="st0" cx="540" cy="540" r="540"/>
<circle class="st0" cx="-940" cy="-514" r="540"/>
<path class="st2" d="M-727.7-458.2c41-12.2,72.1-33,93.1-62.3c21.1-29.3,31.6-62.6,31.6-99.9c0-33-7.7-63-23.2-89.9
	c-15.5-26.9-38.8-48.1-69.9-63.5C-727.3-789.3-765-797-809.2-797h-93.9v-0.5h-378.7v113.6h243.8v268.8c0,4-0.2,7.9-0.6,11.6
	c-1.4,14.7-5.8,26.3-13,34.8c-9.1,10.7-21.9,16-38.3,16c-18.1,0-32-6-41.6-18c-9.6-12-14.4-29.7-14.4-53.1h-135.8
	c0,61.8,17.8,109.4,53.5,143c35.7,33.6,83.1,50.3,142.2,50.3c19.3,0,37.3-1.9,53.9-5.6c31.9-7.2,58.8-21.3,80.7-42.3
	c29.9-28.7,46.4-68.3,49.4-118.9v-50.5h32.8l116.6,211.7h154.2L-727.7-458.2z M-760.8-562.9c-12.5,12.3-31.3,18.4-56.3,18.4h-84.7
	v-139h84.7c25,0,43.8,6.1,56.3,18.4c12.5,12.3,18.8,29,18.8,50.3C-742.1-592.5-748.3-575.1-760.8-562.9z"/>
<path class="st1" d="M2345.5-198h-254c-19.1,0-34.5-15.4-34.5-34.5v0c0-19.1,15.4-34.5,34.5-34.5h254c19.1,0,34.5,15.4,34.5,34.5v0
	C2380-213.4,2364.6-198,2345.5-198z"/>
<text transform="matrix(1 0 0 1 2157.8047 -222.8516)" style="font-family:'Poppins-Bold'; font-size:92.564px;">JR</text>
<g>
	<path class="st2" d="M800.1,585.1c33.2-9.9,58.4-26.8,75.4-50.5c17.1-23.7,25.6-50.7,25.6-80.9c0-26.8-6.3-51-18.8-72.8
		c-12.5-21.8-31.4-38.9-56.7-51.5c-25.2-12.5-55.8-18.8-91.6-18.8h-76v-0.4H351.3v92h197.5v217.7c0,3.3-0.1,6.4-0.5,9.4
		c-1.2,11.9-4.7,21.3-10.6,28.2c-7.3,8.7-17.7,12.9-31.1,12.9c-14.7,0-25.9-4.8-33.7-14.6c-7.8-9.7-11.7-24.1-11.7-43h-110
		c0,50,14.5,88.7,43.4,115.9c28.9,27.2,67.3,40.8,115.2,40.8c15.6,0,30.2-1.5,43.7-4.5c25.9-5.8,47.7-17.3,65.4-34.3
		c24.2-23.2,37.5-55.3,40-96.3v-40.9h26.5l94.5,171.5H905L800.1,585.1z M773.3,500.3c-10.1,9.9-25.4,14.9-45.6,14.9h-68.6V402.6
		h68.6c20.3,0,35.5,5,45.6,14.9c10.1,9.9,15.2,23.5,15.2,40.8C788.5,476.4,783.4,490.4,773.3,500.3z"/>
	<g>
		<path class="st1" d="M194.9,751.2c-13.3-12.4-19.9-27.6-19.9-45.8c0-18.6,6.6-34.3,19.9-46.9c13.3-12.6,30.4-18.9,51.4-18.9
			c20.5,0,37.4,6.3,50.7,18.9c13.3,12.6,19.9,28.2,19.9,46.9c0,18.2-6.6,33.5-19.9,45.8c-13.3,12.4-30.2,18.5-50.7,18.5
			C225.4,769.7,208.2,763.5,194.9,751.2z"/>
	</g>
</g>
</svg>
