<?xml version="1.0" encoding="utf-8"?>
<!-- Generator: Adobe Illustrator 25.2.1, SVG Export Plug-In . SVG Version: 6.00 Build 0)  -->
<svg version="1.1" id="Layer_1" xmlns="http://www.w3.org/2000/svg" xmlns:xlink="http://www.w3.org/1999/xlink" x="0px" y="0px"
	 viewBox="0 0 1080 1080" style="enable-background:new 0 0 1080 1080;" xml:space="preserve">
<style type="text/css">
	.st0{fill:#FFFFFF;}
</style>
<image style="overflow:visible;" width="1600" height="1000" xlink:href="1B73C147.jpg"  transform="matrix(1 0 0 1 -1998.5532 -812.7192)">
</image>
<path class="st0" d="M1045.6,597.8l-447.8,447.8c-31.9,31.9-83.7,31.9-115.7,0L34.4,597.8c-31.9-31.9-31.9-83.7,0-115.7l312.3-312.3
	l122.9,122.9c-4.2,9.7-6.5,20.4-6.5,31.7c0,33.5,20.3,62.2,49.3,74.4v294.6c-29.9,11.9-51,41-51,75.1c0,44.6,36.2,80.8,80.8,80.8
	c44.6,0,80.8-36.2,80.8-80.8c0-31.1-17.5-58-43.2-71.5v-294l109.4,109.4c-3.6,9.2-5.6,19.2-5.6,29.7c0,44.6,36.2,80.8,80.8,80.8
	c44.6,0,80.8-36.2,80.8-80.8s-36.2-80.8-80.8-80.8c-9.3,0-18.2,1.6-26.5,4.4l-117-117c2.4-7.7,3.7-15.9,3.7-24.4
	c0-44.6-36.2-80.8-80.8-80.8c-8.5,0-16.7,1.3-24.4,3.7L394.3,122.2l87.8-87.8c31.9-31.9,83.7-31.9,115.7,0l447.8,447.8
	C1077.6,514.1,1077.6,565.9,1045.6,597.8z"/>
</svg>
