<?xml version="1.0" encoding="utf-8"?>
<!-- Generator: Adobe Illustrator 25.2.1, SVG Export Plug-In . SVG Version: 6.00 Build 0)  -->
<svg version="1.1" id="Layer_1" xmlns="http://www.w3.org/2000/svg" xmlns:xlink="http://www.w3.org/1999/xlink" x="0px" y="0px"
	 viewBox="0 0 1080 1080" style="enable-background:new 0 0 1080 1080;" xml:space="preserve">
<style type="text/css">
	.st0{fill:#FFFFFF;}
</style>
<image style="overflow:visible;" width="1109" height="432" xlink:href="876A170A.jpg"  transform="matrix(1.743 0 0 1.743 2012 -1042)">
</image>
<path class="st0" d="M-1545.9-796l47,543.5l218.3,60l219.7-61l45.6-542.5H-1545.9z M-1105.9-285.9l-173,48.3V-751h213L-1105.9-285.9
	z"/>
<path class="st0" d="M-1304.9-1687l47,543.4l218.3,60l219.7-61l45.6-542.4H-1304.9z M-864.9-1176.9l-173,48.3V-1642h213
	L-864.9-1176.9z"/>
<g>
	<path class="st0" d="M373.5,325.1l8.9,119.9l160.6-0.3V324.5L373.5,325.1z M65.2,0l84.1,972.6L540,1080l393.2-109.1L1014.8,0H65.2z
		 M852.7,913.1l-309.6,86.4V878.4l-3.1,0.9l-242.5-66.4l-16.1-191.5h119.9l7.2,98.4L540,751.3l3.1-0.7V564.1H276l-34-363.3h301.1
		V80.5h381.3L852.7,913.1z M382.5,445l160.6-0.3V324.5l-169.5,0.7L382.5,445z M373.5,325.1l8.9,119.9l160.6-0.3V324.5L373.5,325.1z"
		/>
	<polygon class="st0" points="543.1,444.7 816.5,444.1 784.3,811.1 543.1,878.4 543.1,750.6 673.3,719.8 685.8,564.1 543.1,564.1 	
		"/>
	<polygon class="st0" points="838,200.7 826.4,323.3 543.1,324.5 543.1,200.7 	"/>
</g>
<polygon class="st0" points="-26,-751 308.3,-751 308.3,-686.5 158,-623 296.8,-623 279.5,-420.5 145.5,-377 5.5,-416.5 
	-1.5,-521.5 62.5,-521.5 69.5,-470.5 145.5,-454.6 214.5,-466.5 224.5,-556.5 -6.5,-556.5 -13.5,-618.5 141.2,-685.8 -18.5,-685.5 
	"/>
<g>
	<polygon class="st0" points="695.5,-1172.5 752.5,-1172.5 752.5,-796.4 629.5,-831.5 620.5,-937.5 663.5,-929.5 665.5,-891.5 
		704.5,-881.5 	"/>
	<polygon class="st0" points="778.3,-1172.5 933.5,-1172.5 926.5,-1106.5 838.5,-1106.5 835.5,-1036.5 919.5,-1036.5 902.5,-832.5 
		778.3,-796.4 778.3,-867.9 855.9,-885.8 862.5,-975.5 778.3,-970.6 	"/>
</g>
</svg>
