<?xml version="1.0" encoding="utf-8"?>
<!-- Generator: Adobe Illustrator 25.2.1, SVG Export Plug-In . SVG Version: 6.00 Build 0)  -->
<svg version="1.1" id="Layer_1" xmlns="http://www.w3.org/2000/svg" xmlns:xlink="http://www.w3.org/1999/xlink" x="0px" y="0px"
	 viewBox="0 0 1080 1080" style="enable-background:new 0 0 1080 1080;" xml:space="preserve">
<style type="text/css">
	.st0{fill:#FFFFFF;}
	.st1{fill:#737200;}
	.st2{display:none;}
	.st3{display:inline;fill:#737200;}
</style>
<path class="st0" d="M339.3,620.3c-0.3,0.3-0.2,0.5,0.2-0.2C339.4,620.2,339.3,620.3,339.3,620.3z M343,614.3
	c-0.9-0.3-1.8-0.7-2.5-1c-0.7-0.3-1.3-0.6-1.4-0.7c-0.2,0,0.2,0.1,0.9,1.7c0.3,0.8,0.5,2,0.4,3.1c-0.1,1.1-0.4,2-0.7,2.5
	c0,0.1-0.1,0.2-0.2,0.2c0.3-0.3,0.8-0.7,1.4-1.1c1.5-1,3.4-2.1,5.4-3.1c0.2-0.1,0.4-0.2,0.6-0.3C345.5,615.2,344.2,614.8,343,614.3z
	 M379.4,700.5c0.1-0.1,0.1-0.4,0.1-0.7C379.2,700.5,379.2,700.9,379.4,700.5z M379.5,698.8c-0.1,0,0.1,0.3,0.1,0.7
	c0,0.1,0,0.2,0,0.4c0-0.1,0.1-0.2,0.2-0.3c0.1-0.1,0.2-0.3,0.3-0.4C379.7,698.9,379.5,698.7,379.5,698.8z M343,614.3
	c-0.9-0.3-1.8-0.7-2.5-1c-0.7-0.3-1.3-0.6-1.4-0.7c-0.2,0,0.2,0.1,0.9,1.7c0.3,0.8,0.5,2,0.4,3.1c-0.1,1.1-0.4,2-0.7,2.5
	c0,0.1-0.1,0.2-0.2,0.2c0.3-0.3,0.8-0.7,1.4-1.1c1.5-1,3.4-2.1,5.4-3.1c0.2-0.1,0.4-0.2,0.6-0.3C345.5,615.2,344.2,614.8,343,614.3z
	 M339.3,620.3c-0.3,0.3-0.2,0.5,0.2-0.2C339.4,620.2,339.3,620.3,339.3,620.3z M379.5,698.8c-0.1,0,0.1,0.3,0.1,0.7
	c0,0.1,0,0.2,0,0.4c0-0.1,0.1-0.2,0.2-0.3c0.1-0.1,0.2-0.3,0.3-0.4C379.7,698.9,379.5,698.7,379.5,698.8z M379.4,700.5
	c0.1-0.1,0.1-0.4,0.1-0.7C379.2,700.5,379.2,700.9,379.4,700.5z M287,843.7c-0.7,0.7-1,1.4-1.3,1.9c-0.2,0.4-0.2,0.7,0.1,0.6
	c0.3-0.2,0.8-0.9,1.1-2.1C287,843.9,287,843.8,287,843.7C287,843.6,287,843.6,287,843.7z M287.5,838.9c-0.9-0.6-0.9-0.8-0.4,1.4
	c0,0.3,0,0.5,0.1,0.8c0.1,0.3,0,0.6,0,1c0,0.3,0,0.7-0.1,1c0,0.2,0,0.4-0.1,0.5c0.8-0.9,1.8-2,3-3
	C289,839.9,288.1,839.3,287.5,838.9z M339.3,620.3c-0.3,0.3-0.2,0.5,0.2-0.2C339.4,620.2,339.3,620.3,339.3,620.3z M343,614.3
	c-0.9-0.3-1.8-0.7-2.5-1c-0.7-0.3-1.3-0.6-1.4-0.7c-0.2,0,0.2,0.1,0.9,1.7c0.3,0.8,0.5,2,0.4,3.1c-0.1,1.1-0.4,2-0.7,2.5
	c0,0.1-0.1,0.2-0.2,0.2c0.3-0.3,0.8-0.7,1.4-1.1c1.5-1,3.4-2.1,5.4-3.1c0.2-0.1,0.4-0.2,0.6-0.3C345.5,615.2,344.2,614.8,343,614.3z
	 M379.4,700.5c0.1-0.1,0.1-0.4,0.1-0.7C379.2,700.5,379.2,700.9,379.4,700.5z M379.5,698.8c-0.1,0,0.1,0.3,0.1,0.7
	c0,0.1,0,0.2,0,0.4c0-0.1,0.1-0.2,0.2-0.3c0.1-0.1,0.2-0.3,0.3-0.4C379.7,698.9,379.5,698.7,379.5,698.8z M418.1,794.5
	c-0.3,0.6-0.5,1.1-0.5,1.4c-0.1,0.4,0.2,0.5,0.4-0.1C418.1,795.5,418.1,794.9,418.1,794.5z M418.3,793.3c-0.4-0.1-0.4-0.1-0.3,0.4
	c0,0.2,0.1,0.4,0.1,0.7c0.1-0.1,0.1-0.2,0.2-0.4c0.1-0.2,0.3-0.4,0.4-0.6C418.5,793.4,418.4,793.3,418.3,793.3z M287.5,838.9
	c-0.9-0.6-0.9-0.8-0.4,1.4c0,0.3,0,0.5,0.1,0.8c0.1,0.3,0,0.6,0,1c0,0.3,0,0.7-0.1,1c0,0.2,0,0.4-0.1,0.5c0.8-0.9,1.8-2,3-3
	C289,839.9,288.1,839.3,287.5,838.9z M285.7,845.5c-0.2,0.4-0.2,0.7,0.1,0.6c0.3-0.2,0.8-0.9,1.1-2.1c0-0.1,0.1-0.3,0.1-0.4
	c0,0,0,0,0,0C286.3,844.4,286,845,285.7,845.5z M379.5,698.8c-0.1,0,0.1,0.3,0.1,0.7c0,0.1,0,0.2,0,0.4c0-0.1,0.1-0.2,0.2-0.3
	c0.1-0.1,0.2-0.3,0.3-0.4C379.7,698.9,379.5,698.7,379.5,698.8z M379.4,700.5c0.1-0.1,0.1-0.4,0.1-0.7
	C379.2,700.5,379.2,700.9,379.4,700.5z M418.7,793.4c-0.2,0-0.3-0.1-0.4-0.1c-0.4-0.1-0.4-0.1-0.3,0.4c0,0.2,0.1,0.4,0.1,0.7
	c0.1-0.1,0.1-0.2,0.2-0.4C418.4,793.9,418.5,793.6,418.7,793.4z M418,795.8c0.1-0.3,0.2-0.9,0.1-1.4c-0.3,0.6-0.5,1.1-0.5,1.4
	C417.5,796.3,417.7,796.4,418,795.8z M343,614.3c-0.9-0.3-1.8-0.7-2.5-1c-0.7-0.3-1.3-0.6-1.4-0.7c-0.2,0,0.2,0.1,0.9,1.7
	c0.3,0.8,0.5,2,0.4,3.1c-0.1,1.1-0.4,2-0.7,2.5c0,0.1-0.1,0.2-0.2,0.2c0.3-0.3,0.8-0.7,1.4-1.1c1.5-1,3.4-2.1,5.4-3.1
	c0.2-0.1,0.4-0.2,0.6-0.3C345.5,615.2,344.2,614.8,343,614.3z M339.5,620.1c-0.1,0.1-0.1,0.1-0.2,0.2
	C339,620.6,339.1,620.8,339.5,620.1z M953.4,0H126.6C56.7,0,0,56.7,0,126.6v826.9c0,69.9,56.7,126.6,126.6,126.6h826.9
	c69.9,0,126.6-56.7,126.6-126.6V126.6C1080,56.7,1023.3,0,953.4,0z M664,301.5c7.8-2.9,15.6-5.5,23.6-7.7l2.9,5.2
	c-12,11.2-24.1,22-36,32.7c-11.8,10.8-23.6,21.4-34.4,32.2c-5.4,5.4-10.6,10.9-15.3,16.3c-4.7,5.4-8.6,10.8-11.1,15.6
	c-2.5,4.9-4,9.6-4.5,14.4c-0.2,1.2-0.2,2.5-0.3,3.7c0,1.3,0,2.5,0,3.9c0.1,2.6,0.3,5.3,0.8,8.2c1.8,11.5,6.6,24.6,12.5,38.1
	c1.5,3.4,3,6.8,4.6,10.2c1.6,3.5,3.2,6.9,4.9,10.4c1.7,3.5,3.3,7,5,10.6l1.3,2.9l1.6,3.7c1.1,2.5,1.9,5.1,2.7,7.7
	c3.2,10.5,4.3,22,3,33c-1.3,11-4.9,21.4-10.1,30.3c-5.2,8.9-11.9,16.2-19.4,22.1c-3.7,2.9-7.8,5.4-11.9,7.6
	c-4.2,2.1-8.5,3.8-13.3,4.9l-3.8-4.6c2.6-8.4,4.9-16.2,6.6-23.6c1.6-7.4,2.7-14.2,2.9-20.5c0.1-3.1,0.1-6.1-0.2-8.9
	c-0.1-0.7-0.1-1.4-0.2-2.1l-0.3-2c0-0.7-0.2-1.3-0.3-2c-0.1-0.6-0.2-1.3-0.4-1.9c-1.1-5-2.6-9.6-4.8-14.3c-0.6-1.2-1-2.3-1.7-3.5
	l-0.9-1.8c-0.1-0.2-0.4-0.7-0.6-1.2l-0.7-1.4c-1.9-3.7-3.7-7.4-5.4-11.1c-1.8-3.8-3.5-7.6-5.2-11.5c-1.7-3.9-3.3-7.8-4.9-11.9
	c-1.6-4-3.1-8.2-4.6-12.4c-1.5-4.2-2.8-8.6-4-13.1c-2.5-9-4.3-18.6-5-28.8c-0.6-10.2,0-21.3,3.1-32.1c1.5-5.4,3.5-10.7,6-15.6
	c2.5-5,5.4-9.6,8.6-13.9c0.8-1.1,1.6-2.1,2.5-3.1c0.8-1,1.7-2,2.5-2.9l2.6-2.8l2.6-2.6c3.5-3.4,7-6.3,10.5-9.2
	c7-5.6,14.2-10.4,21.4-14.9c14.5-9,29.2-16.5,44.4-23.2C648.6,307.4,656.3,304.3,664,301.5z M410.5,428.4l1.4-5.5
	c0.5-1.8,0.9-3.7,1.6-5.5l1.9-5.3c0.6-1.7,1.2-3.6,2-5.2c2.8-6.6,6.1-12.8,9.6-18.7c7.1-11.8,15.2-22.2,23.7-31.9
	c8.5-9.6,17.4-18.4,26.4-26.7c18.1-16.6,36.9-31.2,55.1-45.4c9.1-7.1,18.2-14.1,26.9-21.2c8.7-7.1,17.1-14.2,24.7-21.6
	c7.6-7.4,14.3-15,19.2-22.9c2.5-3.9,4.2-7.9,5.4-11.9c0.6-2,1.1-4,1.3-6.1c0.2-0.8,0.2-2.5,0.2-3.9l0.2-4.3
	c0.3-5.8,0.5-11.6,0.7-17.4l0.3-8.7l0.2-8.7c0.2-5.8,0.2-11.6,0.2-17.3c0-2.9-0.1-5.7-0.2-8.6c-0.1-1.4-0.2-2.8-0.3-4.2
	c-0.1-0.7-0.2-1.4-0.2-2l-0.1-0.9l-0.1-0.4v-0.1l0,0c0,0,0.1,0.1,0.2,0.2l4.6-3.8c0.1,0.1,0.3,0.3,0.3,0.4l0.1,0.2l0.3,0.4l0.4,0.6
	c0.3,0.4,0.4,0.8,0.7,1.1c0.4,0.7,0.8,1.5,1.2,2.2c0.7,1.4,1.3,2.8,1.9,4.3c0.6,1.4,1.1,2.9,1.7,4.3l1.5,4.3
	c2,5.7,3.6,11.5,5.1,17.3c1.5,5.8,2.9,11.6,4.2,17.4c1.2,5.8,2.5,11.7,3.6,17.5l0.8,4.4c0.3,1.5,0.6,2.7,0.8,4.8
	c0.5,3.8,0.6,7.6,0.4,11.4c-0.4,7.5-2.2,14.8-4.6,21.5c-2.4,6.7-5.4,12.9-8.8,18.7c-3.4,5.8-7.1,11.2-10.9,16.3
	c-7.7,10.3-15.9,19.6-24.3,28.4c-8.4,8.8-17,17.1-25.5,25.3c-17.1,16.2-34.1,31.7-49.6,47.4c-7.8,7.9-15.2,15.8-21.9,23.9
	c-6.7,8-12.8,16.2-17.7,24.5c-2.4,4.1-4.6,8.2-6.5,12.4c-0.5,1-0.8,2-1.2,3l-1.2,2.9c-0.5,1-0.6,1.9-0.9,2.9l-0.9,2.9
	c-0.5,1.9-0.8,3.9-1.4,5.8l-0.4,2.9l-0.2,1.5c-0.1,0.5-0.2,1-0.1,1.5c-0.1,1-0.1,2-0.2,3l-0.1,1.5l0,1.5c0,1,0,2,0,3.1
	c0,0.5,0,1,0.1,1.6l0.2,1.6c0.7,8.4,2.9,17.2,6.5,26.3c3.6,9.1,8.3,18.3,13.9,27.4c11.3,18.3,25.5,36.3,40.8,54.7l-3.1,5.1
	c-3.1-0.8-6-1.7-9-2.7l-4.4-1.6c-1.4-0.6-2.9-1.1-4.3-1.7c-5.7-2.4-11.3-5.1-16.8-8.1c-10.9-6-21.3-13.2-31.1-21.5
	c-9.7-8.4-18.7-18.2-26.4-29.6c-7.7-11.3-13.8-24.6-17.3-39.2C407.6,459.3,407.2,443.4,410.5,428.4z M317.2,616.1
	c0.2-2.4,0.9-4.6,1.7-6.2c1.7-3.3,3.6-5,5.2-6.5c1.7-1.4,3.2-2.4,4.7-3.3c3-1.7,5.7-3,8.5-4.1c2.7-1.1,5.4-2,8.1-2.9
	c10.6-3.4,21-5.8,31.5-7.8c10.4-2,20.9-3.8,31.3-5.3c10.5-1.4,20.8-2.8,31.4-3.8c3.3-0.3,6.2,2.1,6.5,5.4c0.3,3-1.7,5.7-4.6,6.4
	l-0.1,0c-10,2.3-20.2,4.6-30.2,7.2c-10,2.5-20,5.1-29.9,8.1c-9.8,3-19.6,6-28.6,9.8c-2,0.8-4,1.7-5.8,2.6c0.8,0.2,1.6,0.5,2.4,0.7
	c4.5,1.2,9.3,2.1,14.2,2.9c4.9,0.8,9.9,1.5,14.9,2.2l7.5,0.8l3.8,0.4l3.8,0.3l7.6,0.6l7.6,0.5c5.1,0.4,10.2,0.5,15.3,0.8
	c5.1,0.2,10.2,0.3,15.3,0.4c5.1,0,10.2,0.2,15.4,0.2c41.1,0,82.4-1.9,123.6-5c10.3-0.7,20.6-1.5,30.9-2.4l30.9-2.8
	c10.3-1,20.6-2,30.9-3.2l7.7-0.9c1.3-0.1,2.6-0.3,3.9-0.4c1.3-0.1,2.6,0,3.9,0.1c2.6,0.3,5.3,1.1,8.1,2.6c2.8,1.5,5.6,3.4,8.7,6.9
	l0.1,0.2c2.9,3.3,3.3,8,1.4,11.6c-1.1,2.1-2.2,3.8-3.3,5.2c-1.1,1.4-2.3,2.6-3.5,3.7c-2.4,2.1-4.9,3.5-7.4,4.4
	c-1.3,0.4-2.6,0.8-3.9,1c-1.3,0.2-2.6,0.3-3.9,0.5l-7.8,0.8c-10.5,1.1-20.9,2.1-31.4,3.1c-20.9,1.9-41.9,3.4-62.9,4.6
	c-42,2.2-84.2,3.1-126.6,1.1c-5.3-0.2-10.6-0.6-15.9-0.9c-5.3-0.4-10.6-0.8-15.9-1.3c-5.3-0.5-10.6-1-15.9-1.7l-8-1l-8-1.2l-4-0.6
	l-4-0.7l-8-1.4c-5.3-1-10.6-2.1-15.9-3.3c-5.3-1.3-10.7-2.7-16.2-4.5c-2.8-0.9-5.5-2-8.5-3.3c-3-1.4-6-2.8-9.6-5.8
	c-0.9-0.8-1.9-1.7-2.9-3c-1-1.2-2-2.8-2.8-4.8C317.5,621.1,317,618.5,317.2,616.1z M420.1,793.9c1.5,0.5,3.5,0.9,5.7,1.2
	c4.3,0.7,9.1,1,14,1.2c4.9,0.2,9.9,0.2,14.9,0.1c5,0,10.1-0.2,15.2-0.5c5.1-0.2,10.2-0.5,15.3-0.8c5.1-0.3,10.3-0.6,15.4-1l15.5-1.2
	l15.5-1.3c10.4-0.8,20.7-1.9,31.1-2.8l31.2-2.9l7.8-0.7l3.9-0.4c1.3-0.1,2.6-0.3,3.9-0.2c2.6,0.2,5.4,1.1,8.2,3
	c2.8,2,5.7,4.7,8.8,9.7l0,0c2.3,3.7,2.6,8.1,1.1,11.8c-2.1,5.5-4.5,8.8-6.9,11.2c-2.4,2.4-5,3.8-7.6,4.5c-1.3,0.3-2.6,0.4-3.9,0.5
	l-4,0.4l-7.9,0.7c-10.6,0.8-21.2,1.6-31.8,2.1c-10.6,0.6-21.3,0.9-32,1.1c-5.3,0.1-10.7,0.1-16,0.1c-5.4,0-10.7-0.1-16.1-0.2
	c-5.4-0.1-10.8-0.3-16.2-0.6c-5.4-0.3-10.8-0.7-16.2-1.2c-10.9-1-21.8-2.4-32.9-4.8c-5.6-1.2-11.2-2.7-17-4.9
	c-2.9-1.1-5.9-2.4-9.1-4.3c-1.6-0.9-3.2-2.1-4.9-3.6c-1.7-1.5-3.5-3.5-4.9-6.2c-0.3-0.7-0.7-1.4-0.9-2.2c-0.3-0.8-0.5-1.6-0.6-2.4
	c-0.2-0.8-0.3-1.7-0.3-2.5c0-0.4,0-0.8,0-1.3c0-0.4,0.1-0.8,0.1-1.2c0.4-3.2,1.6-5.6,2.9-7.5c1.3-1.9,2.6-3.3,3.9-4.5
	c1.3-1.2,2.7-2.2,4-3.1c2.7-1.8,5.3-3.2,8-4.4c2.7-1.2,5.3-2.2,8-3.1c3.2-1,6.6,0.7,7.6,3.9c0.8,2.5-0.1,5.2-2.1,6.7l-0.1,0.1
	c-2,1.5-4,3-5.8,4.6s-3.5,3.2-4.8,4.8c-0.5,0.6-0.9,1.1-1.3,1.7C419,793.6,419.5,793.7,420.1,793.9z M586.3,744.6
	c-31.2,1.4-62.4,1.5-93.6-0.8c-3.9-0.3-7.8-0.6-11.7-0.9c-3.9-0.4-7.8-0.7-11.7-1.2c-3.9-0.5-7.8-0.9-11.7-1.4
	c-3.9-0.5-7.8-1-11.6-1.6c-15.5-2.3-30.9-5-46.5-9.2c-3.9-1.1-7.8-2.3-11.8-3.7c-4-1.4-8-3-12.1-5.2c-2.1-1.1-4.1-2.4-6.3-4
	c-2.1-1.7-4.4-3.7-6.5-6.9c-1-1.6-1.9-3.7-2.3-5.9s-0.4-4.7,0.1-6.8c0.5-2.1,1.3-3.9,2.1-5.4c0.9-1.5,1.8-2.7,2.8-3.8
	c1.9-2.1,3.8-3.7,5.8-5c1.9-1.3,3.8-2.5,5.7-3.5c3.8-2,7.6-3.7,11.4-5.2c3.8-1.5,7.6-2.8,11.4-3.9c3.8-1.2,7.6-2.2,11.6-3.1
	c3.2-0.7,6.4,1.3,7.2,4.5c0.7,2.9-0.9,5.7-3.5,6.8l-0.2,0.1c-6.7,2.9-13.6,6.1-19.9,9.6c-3.1,1.8-6.2,3.7-8.9,5.7
	c-1.3,1-2.6,2-3.7,3c-0.9,0.8-1.7,1.7-2.3,2.5c0.3,0.2,0.7,0.5,1.1,0.7c1,0.6,2.2,1.2,3.6,1.7c2.8,1.1,6.1,2.1,9.4,2.9
	c3.4,0.8,6.9,1.5,10.5,2.2c7.1,1.2,14.5,2.2,21.9,2.9c3.7,0.4,7.4,0.7,11.2,1c3.7,0.3,7.5,0.5,11.2,0.8c7.5,0.4,15,0.8,22.5,1.1
	c3.8,0.2,7.5,0.2,11.3,0.3l11.3,0.2c30.1,0.2,60.2-0.9,90.2-3.2c15-1.1,30-2.6,44.9-4.3c7.5-0.9,14.9-1.8,22.3-2.8l5.5-0.8
	c0.9-0.1,1.8-0.3,2.8-0.4c0.9-0.1,1.9,0,2.9,0.1c1.9,0.3,3.9,1.1,6.1,2.6c1.1,0.7,2.2,1.6,3.3,2.7l0.9,0.9l0.9,1
	c0.6,0.6,1.2,1.4,1.8,2.3l0.5,0.7c2.2,3.3,2.7,7.4,1.7,11c-0.2,0.6-0.3,1-0.5,1.5c-0.2,0.5-0.3,0.9-0.5,1.3l-0.5,1.3l-0.6,1.1
	c-0.8,1.4-1.5,2.6-2.4,3.7c-1.6,2.1-3.4,3.5-5.3,4.4c-0.9,0.4-1.9,0.8-2.8,1c-1,0.2-1.9,0.3-2.9,0.4l-5.8,0.8
	c-7.8,1-15.5,2-23.3,2.8C617.5,742.6,601.9,743.7,586.3,744.6z M289.7,889.9l-2.7-1.1l-2.8-1.2c-1.8-0.8-3.7-1.7-5.6-2.7
	c-1-0.5-1.8-1-2.7-1.5c-0.9-0.5-1.7-1-2.6-1.5c-1.8-1.1-3.5-2.2-5.3-3.4c-3.6-2.5-7.2-5.3-11-9.4c-0.9-1-1.9-2-2.8-3.3
	c-0.5-0.6-0.9-1.2-1.4-1.8c-0.5-0.7-0.9-1.4-1.4-2.1l-0.7-1.1l-0.6-1.2c-0.4-0.8-0.8-1.6-1.2-2.5c-0.8-1.9-1.5-3.7-2-5.9
	c-1-4.2-1.3-9.1-0.4-13.5c0.8-4.4,2.5-8.2,4.4-11.3c1.9-3,4-5.3,6-7.3c2-1.9,4-3.5,6-4.9c3.9-2.7,7.7-4.6,11.3-6.3
	c3.7-1.6,7.3-2.9,10.8-4c7.1-2.2,14.1-3.6,21.1-4.6c7-1,13.9-1.5,20.9-1.7l5.2,0l5.2,0.1c3.5,0.2,6.9,0.4,10.5,0.9l1.2,5.8
	c-5.9,3.6-11.8,6.9-17.5,10.2c-5.8,3.2-11.5,6.5-17,9.7c-5.5,3.2-10.9,6.4-15.8,9.7c-2.4,1.6-4.8,3.3-6.8,5c-0.7,0.6-1.4,1.1-2,1.7
	c0.6,0.4,1.3,0.8,2,1.2c0.5,0.3,1,0.6,1.5,0.8l1.6,0.9c1.1,0.5,2.4,1.2,3.4,1.7c1.1,0.5,2.1,1,3.4,1.4l1.8,0.7l1.9,0.7
	c5.2,1.9,10.9,3.7,16.7,5.3c5.9,1.6,11.9,3,18,4.4c6.1,1.4,12.3,2.6,18.6,3.7c12.5,2.3,25.2,4.3,38,6c6.4,0.8,12.8,1.7,19.2,2.4
	c6.4,0.8,12.8,1.5,19.3,2.2c12.9,1.4,25.8,2.4,38.7,3.4c12.9,1,25.9,1.8,38.9,2.3c13,0.7,25.9,1.1,38.9,1.3c13,0.3,26,0.3,38.9,0.1
	c13-0.2,25.9-0.5,38.8-1.3c12.9-0.7,25.8-1.7,38.6-3.2c3.2-0.4,6.4-0.7,9.6-1.2l4.8-0.6l4.8-0.7c6.3-1,12.7-2.1,18.9-3.4
	c3.1-0.7,6.3-1.3,9.3-2.1c1.5-0.4,3.1-0.7,4.6-1.2l4.6-1.3c1.6-0.4,3-0.9,4.6-1.4c1.5-0.5,3-0.9,4.5-1.5l4.5-1.6l4.4-1.7
	c5.8-2.4,11.5-5.1,16.8-8.4c5.3-3.3,10.3-7.1,14.5-11.8l4.8,3.5c-3.5,6.1-8.2,11.5-13.3,16.2c-5.2,4.7-10.9,8.8-16.8,12.4
	c-5.9,3.7-12,6.8-18.3,9.7c-6.2,2.9-12.6,5.4-19,7.8c-25.7,9.3-52.3,15.1-78.9,19.4c-13.3,2.1-26.7,3.8-40.1,5.2
	c-13.4,1.3-26.8,2.4-40.2,3.1c-13.4,0.7-26.8,1.1-40.2,1.4c-13.4,0.1-26.8,0-40.2-0.3c-13.4-0.3-26.8-1-40.2-1.9
	c-6.7-0.4-13.4-0.9-20.1-1.5c-6.7-0.6-13.4-1.3-20.1-2c-13.4-1.5-26.9-3.3-40.3-5.5c-13.5-2.3-27-5-40.7-8.7
	C303.8,894.7,296.8,892.7,289.7,889.9z M796.1,896.6c-8.5,6.3-17.4,11.9-26.7,17c-9.3,5-18.8,9.5-28.5,13.6
	c-9.7,4-19.7,7.5-29.7,10.6c-40.2,12.3-81.9,17.9-123.3,20.5c-41.5,2.5-82.9,1.6-124.1-1.9c-41.2-3.6-82-9.4-122.2-19l1-5.9
	c10.1,0.9,20.3,1.7,30.5,2.4l15.3,1c5.1,0.3,10.2,0.6,15.3,0.9c20.4,1.1,40.7,1.9,61,2.2c40.7,0.8,81.3,0.1,121.5-3.2
	c10.1-0.8,20.1-1.8,30.1-2.9c10-1.1,20-2.5,29.9-4c5-0.8,9.9-1.6,14.9-2.5c4.9-0.9,9.9-1.8,14.8-2.8c2.5-0.5,4.9-1,7.4-1.5l7.3-1.6
	l7.3-1.7l7.3-1.8c38.8-9.6,76.4-23.3,110.9-44.8l3.8,4.6C812.5,883.5,804.5,890.3,796.1,896.6z M833.9,628.6
	c-0.1,1.7-0.1,3.5-0.2,5.2l-0.7,5.1c-0.2,1.7-0.6,3.4-1,5l-0.6,2.5c-0.2,0.8-0.4,1.7-0.7,2.4c-0.5,1.6-1,3.2-1.6,4.8
	c-0.3,0.8-0.6,1.6-0.9,2.3l-1,2.3c-5.3,12.2-13.1,22.2-21.5,30.9c-4.3,4.3-8.7,8.3-13.4,11.9c-2.3,1.9-4.7,3.6-7,5.3
	c-2.4,1.7-4.8,3.3-7.2,4.8l-3.7,2.3c-1.2,0.8-2.5,1.4-3.7,2.1c-2.5,1.4-5,2.8-7.5,4.1c-5.1,2.6-10.2,5-15.5,7.1
	c-10.5,4.3-21.2,7.8-32.4,10l-2.2-5.5c8.8-6.4,17.6-12.9,26-19.5c8.4-6.6,16.5-13.3,24.1-20.3c7.6-7,14.6-14.3,20.7-21.9
	c6-7.7,11.1-15.6,14.1-23.6l0.6-1.5c0.2-0.5,0.4-1,0.5-1.5c0.3-1,0.6-2,0.9-3c0.2-0.5,0.3-1,0.4-1.5l0.3-1.5c0.2-1,0.5-2,0.6-3
	l0.4-3c0.1-1,0-2,0.1-3l0.1-1.5c0-0.5,0-1.1,0-1.6c-0.1-1.1-0.1-2.2-0.1-3.3c-0.4-4.2-1-8.2-2-11.8c-1.1-3.6-2.5-6.7-4.6-9.4
	c-2-2.8-4.7-5.3-8.1-7.6c-3.4-2.2-7.4-4.2-11.9-5.8c-9-3.2-19.5-4.9-30.3-6.2l-1.4-5.8c2.7-1.5,5.3-2.7,8.1-3.8
	c2.8-1,5.6-1.9,8.5-2.7c2.9-0.7,5.9-1.3,8.9-1.7c3-0.4,6.1-0.6,9.3-0.6c6.3,0,12.9,0.9,19.4,3.1c6.5,2.2,13.1,5.9,18.5,11
	c5.5,5.1,9.8,11.5,12.6,18.2c2.8,6.7,4.3,13.5,5,20.1c0.1,1.6,0.2,3.3,0.3,4.9c0,0.8,0.1,1.6,0.1,2.5L833.9,628.6z M418,793.7
	c0,0.2,0.1,0.4,0.1,0.7c0.1-0.1,0.1-0.2,0.2-0.4c0.1-0.2,0.3-0.4,0.4-0.6c-0.2,0-0.3-0.1-0.4-0.1C417.9,793.2,417.9,793.2,418,793.7
	z M418,795.8c0.1-0.3,0.2-0.9,0.1-1.4c-0.3,0.6-0.5,1.1-0.5,1.4C417.5,796.3,417.7,796.4,418,795.8z M379.5,699.4c0,0.1,0,0.2,0,0.4
	c0-0.1,0.1-0.2,0.2-0.3c0.1-0.1,0.2-0.3,0.3-0.4c-0.3-0.2-0.5-0.4-0.5-0.3C379.4,698.8,379.5,699,379.5,699.4z M379.4,700.5
	c0.1-0.1,0.1-0.4,0.1-0.7C379.2,700.5,379.2,700.9,379.4,700.5z M340.5,613.3c-0.7-0.3-1.3-0.6-1.4-0.7c-0.2,0,0.2,0.1,0.9,1.7
	c0.3,0.8,0.5,2,0.4,3.1c-0.1,1.1-0.4,2-0.7,2.5c0,0.1-0.1,0.2-0.2,0.2c0.3-0.3,0.8-0.7,1.4-1.1c1.5-1,3.4-2.1,5.4-3.1
	c0.2-0.1,0.4-0.2,0.6-0.3c-1.4-0.4-2.7-0.8-3.9-1.3C342.1,614,341.2,613.6,340.5,613.3z M339.5,620.1c-0.1,0.1-0.1,0.1-0.2,0.2
	C339,620.6,339.1,620.8,339.5,620.1z M287.1,840.3c0,0.3,0,0.5,0.1,0.8c0.1,0.3,0,0.6,0,1c0,0.3,0,0.7-0.1,1c0,0.2,0,0.4-0.1,0.5
	c0.8-0.9,1.8-2,3-3c-1.1-0.7-2-1.3-2.5-1.7C286.6,838.3,286.6,838.1,287.1,840.3z M285.7,845.5c-0.2,0.4-0.2,0.7,0.1,0.6
	c0.3-0.2,0.8-0.9,1.1-2.1c0-0.1,0.1-0.3,0.1-0.4c0,0,0,0,0,0C286.3,844.4,286,845,285.7,845.5z M379.4,700.5
	c0.1-0.1,0.1-0.4,0.1-0.7C379.2,700.5,379.2,700.9,379.4,700.5z M379.5,698.8c-0.1,0,0.1,0.3,0.1,0.7c0,0.1,0,0.2,0,0.4
	c0-0.1,0.1-0.2,0.2-0.3c0.1-0.1,0.2-0.3,0.3-0.4C379.7,698.9,379.5,698.7,379.5,698.8z M418.1,794.5c-0.3,0.6-0.5,1.1-0.5,1.4
	c-0.1,0.4,0.2,0.5,0.4-0.1C418.1,795.5,418.1,794.9,418.1,794.5z M418.3,793.3c-0.4-0.1-0.4-0.1-0.3,0.4c0,0.2,0.1,0.4,0.1,0.7
	c0.1-0.1,0.1-0.2,0.2-0.4c0.1-0.2,0.3-0.4,0.4-0.6C418.5,793.4,418.4,793.3,418.3,793.3z M339.3,620.3c-0.3,0.3-0.2,0.5,0.2-0.2
	C339.4,620.2,339.3,620.3,339.3,620.3z M343,614.3c-0.9-0.3-1.8-0.7-2.5-1c-0.7-0.3-1.3-0.6-1.4-0.7c-0.2,0,0.2,0.1,0.9,1.7
	c0.3,0.8,0.5,2,0.4,3.1c-0.1,1.1-0.4,2-0.7,2.5c0,0.1-0.1,0.2-0.2,0.2c0.3-0.3,0.8-0.7,1.4-1.1c1.5-1,3.4-2.1,5.4-3.1
	c0.2-0.1,0.4-0.2,0.6-0.3C345.5,615.2,344.2,614.8,343,614.3z M418.3,793.3c-0.4-0.1-0.4-0.1-0.3,0.4c0,0.2,0.1,0.4,0.1,0.7
	c0.1-0.1,0.1-0.2,0.2-0.4c0.1-0.2,0.3-0.4,0.4-0.6C418.5,793.4,418.4,793.3,418.3,793.3z M418.1,794.5c-0.3,0.6-0.5,1.1-0.5,1.4
	c-0.1,0.4,0.2,0.5,0.4-0.1C418.1,795.5,418.1,794.9,418.1,794.5z M379.5,698.8c-0.1,0,0.1,0.3,0.1,0.7c0,0.1,0,0.2,0,0.4
	c0-0.1,0.1-0.2,0.2-0.3c0.1-0.1,0.2-0.3,0.3-0.4C379.7,698.9,379.5,698.7,379.5,698.8z M379.4,700.5c0.1-0.1,0.1-0.4,0.1-0.7
	C379.2,700.5,379.2,700.9,379.4,700.5z M343,614.3c-0.9-0.3-1.8-0.7-2.5-1c-0.7-0.3-1.3-0.6-1.4-0.7c-0.2,0,0.2,0.1,0.9,1.7
	c0.3,0.8,0.5,2,0.4,3.1c-0.1,1.1-0.4,2-0.7,2.5c0,0.1-0.1,0.2-0.2,0.2c0.3-0.3,0.8-0.7,1.4-1.1c1.5-1,3.4-2.1,5.4-3.1
	c0.2-0.1,0.4-0.2,0.6-0.3C345.5,615.2,344.2,614.8,343,614.3z M339.3,620.3c-0.3,0.3-0.2,0.5,0.2-0.2
	C339.4,620.2,339.3,620.3,339.3,620.3z M339.3,620.3c-0.3,0.3-0.2,0.5,0.2-0.2C339.4,620.2,339.3,620.3,339.3,620.3z M343,614.3
	c-0.9-0.3-1.8-0.7-2.5-1c-0.7-0.3-1.3-0.6-1.4-0.7c-0.2,0,0.2,0.1,0.9,1.7c0.3,0.8,0.5,2,0.4,3.1c-0.1,1.1-0.4,2-0.7,2.5
	c0,0.1-0.1,0.2-0.2,0.2c0.3-0.3,0.8-0.7,1.4-1.1c1.5-1,3.4-2.1,5.4-3.1c0.2-0.1,0.4-0.2,0.6-0.3C345.5,615.2,344.2,614.8,343,614.3z
	 M343,614.3c-0.9-0.3-1.8-0.7-2.5-1c-0.7-0.3-1.3-0.6-1.4-0.7c-0.2,0,0.2,0.1,0.9,1.7c0.3,0.8,0.5,2,0.4,3.1c-0.1,1.1-0.4,2-0.7,2.5
	c0,0.1-0.1,0.2-0.2,0.2c0.3-0.3,0.8-0.7,1.4-1.1c1.5-1,3.4-2.1,5.4-3.1c0.2-0.1,0.4-0.2,0.6-0.3C345.5,615.2,344.2,614.8,343,614.3z
	 M339.3,620.3c-0.3,0.3-0.2,0.5,0.2-0.2C339.4,620.2,339.3,620.3,339.3,620.3z"/>
<g>
	<path class="st1" d="M346.9,615.6c-0.2,0.1-0.4,0.2-0.6,0.3c-2,1-3.9,2.1-5.4,3.1c-0.6,0.4-1.1,0.8-1.4,1.1c0-0.1,0.1-0.2,0.2-0.2
		c0.3-0.5,0.6-1.4,0.7-2.5c0.1-1.1-0.1-2.4-0.4-3.1c-0.7-1.6-1.1-1.7-0.9-1.7c0.2,0.1,0.7,0.4,1.4,0.7c0.7,0.3,1.6,0.7,2.5,1
		C344.2,614.8,345.5,615.2,346.9,615.6z"/>
	<path class="st1" d="M380,699.1c-0.1,0.2-0.2,0.3-0.3,0.4c-0.1,0.1-0.1,0.2-0.2,0.3c0-0.1,0-0.2,0-0.4c0-0.4-0.1-0.6-0.1-0.7
		C379.5,698.7,379.7,698.9,380,699.1z"/>
	<path class="st1" d="M418.7,793.4c-0.1,0.2-0.3,0.4-0.4,0.6c-0.1,0.1-0.1,0.3-0.2,0.4c0-0.3-0.1-0.5-0.1-0.7
		c-0.1-0.5-0.1-0.5,0.3-0.4C418.4,793.3,418.5,793.4,418.7,793.4z"/>
	<path class="st1" d="M290,840.6c-1.2,1-2.2,2.1-3,3c0-0.2,0.1-0.4,0.1-0.5c0.1-0.3,0.1-0.7,0.1-1c0-0.3,0-0.6,0-1
		c0-0.3-0.1-0.6-0.1-0.8c-0.5-2.2-0.6-2,0.4-1.4C288.1,839.3,289,839.9,290,840.6z"/>
</g>
<g class="st2">
	<path class="st3" d="M1668.5,685c-12.6,2.9-25.3,5.8-37.8,9c-12.6,3.1-25.1,6.4-37.4,10.1c-12.3,3.7-24.5,7.6-35.8,12.2
		c-2.8,1.2-5.5,2.4-8.1,3.7c-2.5,1.3-4.9,2.6-6.7,3.9c-0.9,0.6-1.6,1.3-2,1.7c-0.4,0.4-0.3,0.6,0.4-0.6c0.3-0.6,0.8-1.7,0.9-3.1
		c0.1-1.4-0.2-3-0.5-3.9c-0.9-2.1-1.3-2.2-1.1-2.1c0.2,0.1,0.9,0.5,1.8,0.9c0.9,0.4,2,0.9,3.2,1.3c2.4,0.9,5.1,1.7,7.9,2.4
		c5.6,1.5,11.7,2.6,17.8,3.7c6.1,1,12.4,1.9,18.7,2.7l9.4,1l4.7,0.5l4.7,0.4l9.5,0.8l9.5,0.6c6.3,0.5,12.7,0.7,19.1,1
		c6.4,0.2,12.8,0.4,19.2,0.5c6.4,0,12.8,0.2,19.3,0.2c51.4,0,103.1-2.4,154.7-6.3c12.9-0.9,25.8-1.9,38.7-3l38.7-3.5
		c12.9-1.2,25.8-2.6,38.6-4l9.6-1.1c1.6-0.2,3.2-0.4,4.8-0.5c1.6-0.1,3.2-0.1,4.9,0.1c3.3,0.4,6.7,1.4,10.1,3.2
		c3.5,1.9,7,4.2,10.8,8.7l0.2,0.2c3.6,4.2,4.1,10,1.8,14.6c-1.3,2.7-2.7,4.7-4.2,6.5c-1.4,1.8-2.9,3.3-4.4,4.6
		c-3,2.6-6.1,4.4-9.3,5.5c-1.6,0.6-3.2,1-4.8,1.2c-1.6,0.3-3.3,0.4-4.9,0.6l-9.8,1.1c-13.1,1.4-26.2,2.7-39.3,3.9
		c-26.2,2.4-52.5,4.2-78.8,5.7c-52.6,2.8-105.5,3.9-158.5,1.3c-6.6-0.3-13.3-0.7-19.9-1.1c-6.6-0.5-13.3-1-19.9-1.6
		c-6.6-0.7-13.3-1.2-19.9-2.1l-10-1.2l-10-1.5l-5-0.7l-5-0.9l-10-1.7c-6.6-1.2-13.2-2.6-19.9-4.2c-6.7-1.6-13.4-3.3-20.3-5.6
		c-3.5-1.2-7-2.4-10.6-4.1c-3.7-1.7-7.5-3.5-12.1-7.3c-1.2-1-2.4-2.1-3.6-3.7c-1.2-1.5-2.5-3.5-3.5-6c-1-2.5-1.6-5.7-1.4-8.7
		c0.2-3,1.1-5.7,2.1-7.8c2.2-4.2,4.5-6.3,6.6-8.1c2.1-1.8,4-3,5.9-4.2c3.7-2.2,7.2-3.7,10.6-5.2c3.4-1.4,6.8-2.6,10.1-3.6
		c13.3-4.2,26.3-7.2,39.4-9.8c13.1-2.6,26.1-4.7,39.2-6.6c13.1-1.8,26.1-3.5,39.3-4.7c4.1-0.4,7.8,2.6,8.1,6.8
		C1674.7,680.7,1672.2,684.1,1668.5,685L1668.5,685z"/>
	<path class="st3" d="M1635.3,798.2c-8.4,3.6-17,7.6-24.9,12.1c-3.9,2.2-7.8,4.6-11.2,7.1c-1.7,1.2-3.3,2.5-4.7,3.8
		c-1.4,1.3-2.5,2.6-3.2,3.6c-0.7,1-0.7,1.8-0.4,1.2c0.1-0.3,0.2-0.9,0.2-1.3c0-0.5-0.2-0.8-0.1-0.8c0.1-0.1,0.9,0.6,2.1,1.3
		c1.2,0.7,2.8,1.5,4.6,2.1c3.5,1.4,7.6,2.6,11.8,3.6c4.2,1,8.6,1.9,13.1,2.7c8.9,1.5,18.1,2.7,27.4,3.7c4.6,0.5,9.3,0.9,14,1.3
		c4.7,0.4,9.4,0.7,14.1,1c9.4,0.6,18.8,1,28.2,1.4c4.7,0.2,9.4,0.3,14.1,0.4l14.1,0.2c37.6,0.3,75.3-1.1,112.8-4
		c18.8-1.4,37.5-3.3,56.2-5.4c9.3-1.1,18.7-2.3,28-3.6l7-1c1.2-0.2,2.3-0.4,3.5-0.5c1.2-0.1,2.4-0.1,3.6,0.1
		c2.4,0.4,4.9,1.4,7.6,3.2c1.3,0.9,2.7,2,4.1,3.4l1.1,1.1l1.1,1.3c0.7,0.8,1.5,1.8,2.3,2.9l0.6,0.9c2.8,4.2,3.4,9.3,2.1,13.8
		c-0.2,0.7-0.4,1.3-0.6,1.9c-0.2,0.6-0.4,1.1-0.7,1.7l-0.7,1.6l-0.7,1.4c-0.9,1.8-1.9,3.3-3,4.6c-2.1,2.6-4.3,4.3-6.6,5.5
		c-1.2,0.5-2.3,1-3.6,1.2c-1.2,0.2-2.4,0.4-3.6,0.6l-7.3,1c-9.7,1.3-19.4,2.5-29.1,3.5c-19.4,2.1-38.9,3.5-58.4,4.6
		c-39,1.8-78.2,1.9-117.2-1c-4.9-0.4-9.8-0.7-14.6-1.2c-4.9-0.5-9.7-0.9-14.6-1.5c-4.9-0.6-9.7-1.1-14.6-1.7
		c-4.9-0.7-9.7-1.3-14.6-2c-19.4-2.9-38.7-6.2-58.3-11.5c-4.9-1.4-9.8-2.9-14.7-4.6c-5-1.8-9.9-3.8-15.1-6.5c-2.6-1.4-5.2-3-7.9-5
		c-2.7-2.1-5.6-4.6-8.1-8.7c-1.3-2-2.4-4.6-2.9-7.4c-0.6-2.8-0.5-5.9,0.1-8.5c0.6-2.6,1.6-4.9,2.7-6.7c1.1-1.9,2.3-3.4,3.5-4.7
		c2.4-2.6,4.8-4.6,7.2-6.3c2.4-1.7,4.8-3.1,7.1-4.4c4.7-2.6,9.5-4.7,14.2-6.5c4.7-1.8,9.5-3.4,14.2-4.9c4.8-1.5,9.5-2.8,14.5-3.9
		c4-0.9,8,1.6,9,5.6c0.8,3.6-1.1,7.2-4.3,8.6L1635.3,798.2z"/>
	<path class="st3" d="M1655.1,928.3c-2.5,1.9-5,3.8-7.2,5.8c-2.3,2-4.4,4-6.1,6c-0.9,1-1.6,2-2.1,2.9c-0.6,0.9-0.9,1.8-0.9,2.3
		c-0.1,0.5,0.2,0.6,0.5-0.1c0.3-0.7,0.2-2,0-2.6c-0.1-0.6-0.1-0.7,0.4-0.5c0.5,0.1,1.2,0.4,2.2,0.7c1.9,0.6,4.4,1.1,7.1,1.5
		c5.4,0.9,11.4,1.3,17.5,1.5c6.1,0.3,12.4,0.2,18.7,0.1c6.3-0.1,12.7-0.3,19-0.6c6.4-0.2,12.8-0.6,19.2-1c6.4-0.4,12.9-0.8,19.3-1.3
		l19.4-1.5l19.4-1.7c13-1,25.9-2.3,38.9-3.5l39-3.6l9.8-0.9l4.9-0.5c1.6-0.1,3.3-0.4,4.9-0.2c3.3,0.2,6.7,1.4,10.2,3.8
		c3.5,2.5,7.2,5.9,11.1,12.1l0,0c2.9,4.6,3.2,10.1,1.4,14.8c-2.6,6.9-5.6,10.9-8.6,14c-3,3-6.2,4.8-9.5,5.6
		c-1.6,0.4-3.3,0.5-4.9,0.7l-5,0.4l-9.9,0.8c-13.3,1-26.5,2-39.8,2.7c-13.3,0.7-26.7,1.1-40,1.4c-6.7,0.1-13.4,0.1-20.1,0.1
		c-6.7,0-13.4-0.1-20.2-0.3c-6.7-0.2-13.5-0.4-20.2-0.8c-6.8-0.4-13.5-0.9-20.3-1.5c-13.6-1.3-27.3-3-41.2-6c-7-1.5-14-3.4-21.3-6.1
		c-3.7-1.4-7.4-3.1-11.4-5.4c-2-1.2-4.1-2.6-6.2-4.5c-2.1-1.9-4.4-4.4-6.2-7.8c-0.4-0.9-0.9-1.7-1.2-2.8c-0.3-1-0.6-2-0.8-3
		c-0.2-1.1-0.3-2.1-0.3-3.2c0-0.5,0-1.1,0-1.6c0-0.5,0.1-1,0.2-1.5c0.5-4,2-7.1,3.6-9.4c1.6-2.4,3.3-4.1,4.9-5.7
		c1.7-1.5,3.3-2.8,5-3.9c3.3-2.2,6.7-4,10-5.5c3.3-1.5,6.7-2.8,10.1-3.8c4-1.3,8.2,0.9,9.5,4.9c1,3.1-0.2,6.5-2.7,8.3L1655.1,928.3z
		"/>
	<path class="st3" d="M1553.2,955.9c-7.3,4.5-14.7,8.7-22,12.8c-7.3,4.1-14.4,8.1-21.3,12.1c-6.9,4-13.6,8-19.7,12.2
		c-3,2.1-5.9,4.1-8.5,6.2c-2.6,2-4.8,4.2-6.3,6c-0.8,0.9-1.2,1.7-1.6,2.3c-0.2,0.6-0.2,0.9,0.1,0.7c0.4-0.2,1-1.1,1.4-2.6
		c0.1-0.4,0.2-0.8,0.2-1.2c0.1-0.4,0.1-0.8,0.1-1.2c0-0.4,0-0.8,0-1.2c-0.1-0.4-0.1-0.7-0.1-1.1c-0.6-2.8-0.7-2.5,0.4-1.8
		c1.1,0.8,3.2,2.2,5.6,3.6c0.6,0.3,1.2,0.7,1.9,1.1l2,1.1c1.4,0.7,3,1.5,4.3,2.1c1.3,0.6,2.6,1.2,4.2,1.8l2.3,0.9l2.4,0.9
		c6.5,2.4,13.6,4.6,20.9,6.6c7.3,2,14.9,3.8,22.6,5.5c7.7,1.7,15.5,3.2,23.3,4.7c15.7,2.9,31.5,5.4,47.5,7.5c8,1.1,16,2.1,24,3
		c8,1,16.1,1.9,24.1,2.7c16.1,1.7,32.3,3,48.5,4.3c16.2,1.2,32.4,2.2,48.6,2.9c16.2,0.8,32.5,1.4,48.7,1.6
		c16.2,0.3,32.5,0.4,48.7,0.1c16.2-0.2,32.4-0.7,48.6-1.7c16.2-0.8,32.3-2.2,48.3-4c4-0.5,8-0.9,12-1.5l6-0.8l6-0.9
		c8-1.2,15.8-2.6,23.7-4.3c3.9-0.9,7.8-1.7,11.7-2.7c1.9-0.5,3.9-0.9,5.8-1.4l5.8-1.6c1.9-0.5,3.8-1.1,5.7-1.7
		c1.9-0.6,3.8-1.2,5.7-1.8l5.6-1.9l5.5-2.2c7.3-3,14.4-6.4,21.1-10.5c6.7-4.1,12.9-8.9,18.2-14.7l6.1,4.3
		c-4.4,7.6-10.2,14.4-16.7,20.2c-6.5,5.9-13.6,11-21,15.5c-7.4,4.6-15.1,8.5-22.9,12.1c-7.8,3.6-15.8,6.8-23.8,9.7
		c-32.2,11.6-65.4,18.9-98.7,24.3c-16.7,2.6-33.4,4.8-50.1,6.5c-16.7,1.7-33.5,3-50.3,3.9c-16.8,0.9-33.6,1.4-50.4,1.7
		c-16.8,0.2-33.6,0-50.4-0.4c-16.8-0.4-33.6-1.3-50.4-2.3c-8.4-0.5-16.8-1.2-25.2-1.9c-8.4-0.8-16.8-1.6-25.2-2.5
		c-16.8-1.9-33.6-4.1-50.5-6.9c-16.9-2.9-33.8-6.2-50.9-10.8c-8.6-2.3-17.3-4.9-26.3-8.4l-3.4-1.3l-3.4-1.5c-2.3-1-4.7-2.2-7-3.4
		c-1.2-0.6-2.3-1.2-3.4-1.8c-1.1-0.6-2.2-1.2-3.3-1.9c-2.2-1.4-4.4-2.7-6.6-4.3c-4.4-3.2-9.1-6.7-13.7-11.7
		c-1.2-1.3-2.3-2.6-3.5-4.1c-0.6-0.8-1.2-1.5-1.7-2.3c-0.6-0.9-1.2-1.7-1.7-2.6l-0.8-1.3l-0.8-1.5c-0.5-1-1-2-1.5-3.1
		c-1-2.3-1.8-4.6-2.5-7.4c-1.3-5.2-1.6-11.4-0.5-16.9c1.1-5.6,3.2-10.3,5.6-14.2c2.4-3.8,5-6.7,7.5-9.2c2.5-2.4,5.1-4.4,7.5-6.1
		c4.9-3.4,9.6-5.8,14.2-7.9c4.6-2,9.1-3.6,13.6-5c8.9-2.7,17.7-4.5,26.4-5.8c8.7-1.3,17.4-1.9,26.1-2.1l6.5-0.1l6.5,0.2
		c4.4,0.2,8.7,0.5,13.2,1.1L1553.2,955.9z"/>
	<path class="st3" d="M1544.9,1115c12.7,1.2,25.5,2.1,38.2,3l19.1,1.2c6.4,0.4,12.7,0.8,19.1,1.1c25.5,1.4,51,2.4,76.4,2.8
		c50.9,1,101.7,0.1,152.1-3.9c12.6-0.9,25.2-2.2,37.7-3.7c12.5-1.4,25-3.1,37.4-5.1c6.2-0.9,12.4-2,18.6-3.1
		c6.2-1.2,12.3-2.3,18.5-3.5c3.1-0.6,6.2-1.2,9.2-1.9l9.2-2l9.2-2.1l9.1-2.2c48.6-12,95.6-29.2,138.8-56.1l4.7,5.8
		c-9,9.5-19.1,18.1-29.7,25.9c-10.6,7.8-21.8,14.9-33.4,21.2c-11.6,6.3-23.5,11.9-35.7,17c-12.2,5-24.6,9.3-37.2,13.3
		c-50.3,15.4-102.5,22.4-154.3,25.6c-51.9,3.1-103.8,2-155.3-2.4c-51.5-4.5-102.6-11.7-153-23.8L1544.9,1115z"/>
	<path class="st3" d="M2046.4,668.7c3.4-1.9,6.7-3.4,10.2-4.7c3.5-1.3,7-2.4,10.6-3.3c3.6-0.9,7.3-1.6,11.1-2.1
		c3.8-0.6,7.7-0.7,11.6-0.7c7.9,0,16.1,1.2,24.3,3.9c8.2,2.8,16.4,7.4,23.2,13.8c6.9,6.4,12.3,14.4,15.7,22.8
		c3.5,8.3,5.4,16.8,6.3,25.1c0.1,2,0.3,4.1,0.4,6.1c0,1,0.2,2,0.1,3.1l-0.1,3.2c-0.1,2.2-0.1,4.3-0.3,6.5l-0.8,6.4
		c-0.2,2.2-0.8,4.2-1.3,6.3l-0.7,3.1c-0.2,1-0.5,2.1-0.9,3.1c-0.7,2-1.3,4-2,6c-0.3,1-0.7,2-1.1,2.9l-1.2,2.8
		c-6.6,15.2-16.4,27.8-26.9,38.7c-5.4,5.4-10.9,10.4-16.7,14.9c-2.9,2.3-5.9,4.5-8.8,6.6c-3,2.1-6,4.1-9.1,6l-4.6,2.9
		c-1.5,1-3.1,1.8-4.7,2.7c-3.1,1.8-6.3,3.5-9.4,5.1c-6.4,3.2-12.8,6.3-19.4,8.9c-13.2,5.3-26.5,9.8-40.5,12.5l-2.8-6.9
		c11-8,22-16.1,32.5-24.4c10.5-8.3,20.7-16.7,30.2-25.5c9.5-8.8,18.3-17.9,25.9-27.5c7.5-9.6,13.8-19.5,17.6-29.6l0.7-1.9
		c0.3-0.6,0.5-1.3,0.6-1.9c0.4-1.3,0.8-2.5,1.1-3.8c0.2-0.6,0.4-1.3,0.5-1.9l0.4-1.9c0.2-1.3,0.6-2.5,0.7-3.8l0.5-3.8
		c0.1-1.3,0.1-2.5,0.1-3.8l0.1-1.9c0.1-0.6,0-1.3-0.1-2c-0.1-1.4-0.1-2.7-0.1-4.1c-0.5-5.3-1.2-10.3-2.5-14.7
		c-1.3-4.4-3.1-8.3-5.7-11.8c-2.6-3.5-5.9-6.7-10.1-9.5c-4.2-2.8-9.3-5.3-14.9-7.2c-11.3-4-24.4-6.2-37.9-7.8L2046.4,668.7z"/>
	<path class="st3" d="M1767.1,672.9c-3.9-1-7.6-2.1-11.2-3.4l-5.5-2c-1.8-0.7-3.6-1.4-5.4-2.2c-7.2-3-14.1-6.4-21-10.1
		c-13.7-7.5-26.7-16.5-38.9-27c-12.2-10.6-23.4-22.8-33-37.1c-9.6-14.2-17.3-30.8-21.6-49.1c-4.3-18.2-4.8-38.2-0.7-56.9l1.7-6.9
		c0.6-2.3,1.1-4.7,2-6.9l2.4-6.7c0.8-2.2,1.6-4.5,2.5-6.5c3.6-8.2,7.6-16,12.1-23.4c8.8-14.8,19-27.8,29.6-39.9
		c10.6-12,21.8-23.1,33.1-33.4c22.7-20.7,46.1-39,69-56.9c11.4-8.9,22.7-17.7,33.6-26.5c10.9-8.8,21.4-17.8,30.9-27
		c9.5-9.2,18-18.8,24-28.6c3.1-4.9,5.2-9.9,6.8-14.9c0.7-2.5,1.3-5,1.6-7.6c0.2-1.1,0.2-3.2,0.3-4.9l0.2-5.4
		c0.4-7.3,0.6-14.5,0.9-21.8l0.4-10.9l0.3-10.9c0.2-7.2,0.3-14.5,0.2-21.7c-0.1-3.6-0.1-7.2-0.3-10.7c-0.1-1.8-0.2-3.5-0.4-5.2
		c-0.1-0.8-0.2-1.7-0.3-2.5l-0.2-1.1l-0.1-0.5c0-0.1,0-0.1,0-0.1l0-0.1c0,0,0.1,0.2,0.2,0.2l5.7-4.8c0.1,0.2,0.3,0.4,0.4,0.5
		l0.2,0.2l0.3,0.5l0.5,0.8c0.3,0.5,0.6,0.9,0.8,1.4c0.5,0.9,1,1.8,1.4,2.7c0.9,1.8,1.7,3.6,2.4,5.4c0.7,1.8,1.4,3.6,2.1,5.4l1.9,5.4
		c2.5,7.2,4.4,14.4,6.4,21.7c1.9,7.3,3.6,14.5,5.3,21.8c1.5,7.3,3.1,14.6,4.5,21.9l1,5.5c0.3,1.9,0.7,3.4,1,6
		c0.6,4.7,0.7,9.5,0.5,14.2c-0.5,9.4-2.7,18.6-5.7,26.9c-3,8.4-6.8,16.2-11,23.4c-4.2,7.3-8.8,14-13.6,20.5
		c-9.6,12.9-19.9,24.5-30.4,35.5c-10.5,11-21.2,21.5-31.9,31.6c-21.3,20.3-42.6,39.6-62.1,59.4c-9.7,9.8-19,19.8-27.4,29.9
		c-8.4,10.1-16,20.3-22.2,30.6c-3,5.2-5.8,10.3-8.1,15.5c-0.7,1.3-1,2.5-1.5,3.7l-1.5,3.6c-0.6,1.2-0.8,2.4-1.2,3.6l-1.2,3.6
		c-0.7,2.4-1,4.9-1.7,7.3l-0.5,3.7l-0.3,1.9c-0.1,0.6-0.2,1.2-0.2,1.9c-0.1,1.2-0.1,2.5-0.2,3.8l-0.2,1.9l0.1,1.9
		c0,1.3,0.1,2.6,0,3.8c0,0.6,0,1.3,0.1,1.9l0.2,2c0.9,10.5,3.6,21.6,8.1,32.9c4.5,11.3,10.4,22.9,17.5,34.3
		c14.1,22.9,32,45.5,51.1,68.4L1767.1,672.9z"/>
	<path class="st3" d="M1825.5,703.8c3.2-10.5,6.2-20.3,8.2-29.5c2-9.2,3.3-17.8,3.6-25.7c0.2-3.9,0.1-7.6-0.2-11.2
		c-0.1-0.9-0.1-1.7-0.2-2.6l-0.4-2.5c-0.1-0.8-0.3-1.6-0.4-2.5c-0.2-0.8-0.2-1.6-0.5-2.4c-1.4-6.3-3.3-12-6-17.9
		c-0.7-1.5-1.3-2.9-2.1-4.4l-1.1-2.2c-0.1-0.3-0.5-0.9-0.8-1.5l-0.9-1.7c-2.3-4.6-4.6-9.2-6.8-13.9c-2.2-4.7-4.4-9.5-6.5-14.4
		c-2.1-4.9-4.2-9.8-6.2-14.9c-2-5-3.9-10.2-5.7-15.5c-1.8-5.3-3.5-10.7-5-16.4c-3.1-11.2-5.4-23.2-6.2-36.1
		c-0.8-12.8,0-26.7,3.8-40.2c1.8-6.7,4.3-13.4,7.5-19.6c3.1-6.2,6.8-12,10.8-17.3c1-1.4,2.1-2.6,3.1-3.9c1-1.3,2.1-2.5,3.2-3.7
		l3.2-3.5l3.2-3.2c4.3-4.3,8.7-7.9,13.1-11.5c8.8-7,17.8-13.1,26.8-18.7c18.1-11.2,36.6-20.7,55.6-29c9.5-4.2,19-8.1,28.7-11.6
		c9.7-3.6,19.5-6.9,29.6-9.6l3.6,6.5c-15,14.1-30.2,27.5-45,40.9c-14.8,13.5-29.5,26.8-43.1,40.3c-6.8,6.8-13.3,13.6-19.1,20.4
		c-5.8,6.8-10.8,13.5-13.8,19.5c-3.1,6.1-5,12-5.7,18.1c-0.2,1.5-0.3,3.1-0.4,4.6c0,1.6-0.1,3.2,0,4.8c0.1,3.3,0.4,6.7,1,10.3
		c2.3,14.3,8.3,30.8,15.6,47.7c1.8,4.2,3.8,8.5,5.7,12.8c2,4.3,4,8.7,6.1,13c2.1,4.4,4.2,8.8,6.3,13.3l1.6,3.6l2,4.7
		c1.3,3.1,2.3,6.4,3.4,9.7c4,13.1,5.3,27.6,3.8,41.3c-1.6,13.8-6.2,26.8-12.7,37.9c-6.5,11.1-14.9,20.3-24.2,27.6
		c-4.7,3.7-9.7,6.8-14.9,9.5c-5.3,2.6-10.6,4.8-16.7,6.2L1825.5,703.8z"/>
</g>
</svg>
