<?xml version="1.0" encoding="utf-8"?>
<!-- Generator: Adobe Illustrator 25.2.1, SVG Export Plug-In . SVG Version: 6.00 Build 0)  -->
<svg version="1.1" id="Layer_1" xmlns="http://www.w3.org/2000/svg" xmlns:xlink="http://www.w3.org/1999/xlink" x="0px" y="0px"
	 viewBox="0 0 1080 1080" style="enable-background:new 0 0 1080 1080;" xml:space="preserve">
<style type="text/css">
	.st0{fill:#FFFFFF;}
</style>
<image style="overflow:visible;" width="1109" height="432" xlink:href="E9F2B598.jpg"  transform="matrix(1.743 0 0 1.743 2012 -1042)">
</image>
<g>
	<path class="st0" d="M-1656.5,663.1l8.9,119.9l160.6-0.3V662.5L-1656.5,663.1z M-1964.8,338l84.1,972.6L-1490,1418l393.2-109.1
		l81.6-970.9H-1964.8z M-1177.3,1251.1l-309.6,86.4v-121.1l-3.1,0.9l-242.5-66.4l-16.1-191.5h119.9l7.2,98.4l131.5,31.5l3.1-0.7
		V902.1H-1754l-34-363.3h301.1V418.5h381.3L-1177.3,1251.1z M-1647.5,783l160.6-0.3V662.5l-169.5,0.7L-1647.5,783z M-1656.5,663.1
		l8.9,119.9l160.6-0.3V662.5L-1656.5,663.1z"/>
	<polygon class="st0" points="-1486.9,782.7 -1213.5,782.1 -1245.7,1149.1 -1486.9,1216.4 -1486.9,1088.6 -1356.7,1057.8 
		-1344.2,902.1 -1486.9,902.1 	"/>
	<polygon class="st0" points="-1192,538.7 -1203.6,661.3 -1486.9,662.5 -1486.9,538.7 	"/>
</g>
<g>
	<path class="st0" d="M-2141.8-875l84.1,972.6L-1667,205l393.2-109.1l81.6-970.9H-2141.8z M-1354.3,38.1l-309.6,86.4V-1.7
		L-1909.8-71l-12.5-187.9h114.5l12.5,91.3l131.4,27.4v-181.3h-267.4l-12.5-111l276.8-120.4l-285.8,0.5l-13.4-117.2h302.3v-124.8
		h381.3L-1354.3,38.1z"/>
	<polygon class="st0" points="-1367.8,-554.2 -1636.9,-440.6 -1388.5,-440.6 -1419.4,-78.2 -1659.3,-0.3 -1663.9,-1.7 
		-1663.9,-140.2 -1659.3,-139.3 -1535.8,-160.5 -1517.9,-321.6 -1663.9,-321.6 -1663.9,-669.7 -1367.8,-669.7 	"/>
</g>
<g>
	<path class="st0" d="M65.2,0l84.1,972.6L540,1080l393.2-109.1L1014.8,0H65.2z M496.2,876.5L276,813.8l-16.1-189.7l77,14.3l3.6,68
		l69.8,17.9l-16.1-520.8h102V876.5z M852.7,913.1l-309.6,86.4V80.5h381.3L852.7,913.1z"/>
	<polygon class="st0" points="562,203.5 839.8,203.5 827.3,321.6 669.8,321.6 664.4,446.9 814.7,446.9 784.3,812 562,876.5 
		562,748.6 700.9,716.6 712.7,556 562,564.9 	"/>
</g>
</svg>
