<?xml version="1.0" encoding="utf-8"?>
<!-- Generator: Adobe Illustrator 25.2.1, SVG Export Plug-In . SVG Version: 6.00 Build 0)  -->
<svg version="1.1" id="Layer_1" xmlns="http://www.w3.org/2000/svg" xmlns:xlink="http://www.w3.org/1999/xlink" x="0px" y="0px"
	 viewBox="0 0 1080 1080" style="enable-background:new 0 0 1080 1080;" xml:space="preserve">
<style type="text/css">
	.st0{fill:#FFFFFF;}
</style>
<g>
	<path class="st0" d="M1057.7,253.6c-0.2-0.8-0.5-1.6-0.8-2.3l0,0c-0.3-0.7-0.7-1.5-1.1-2.2c-1.6-2.8-4-5.3-6.9-7l0,0l-200.4-117
		c-5.9-3.5-13.2-3.5-19.1,0L627,242.1c-0.1,0-0.1,0.1-0.1,0.1c-0.4,0.2-0.7,0.4-1.1,0.7c-0.3,0.2-0.7,0.5-1,0.7
		c-0.1,0.1-0.3,0.2-0.4,0.4c-0.2,0.2-0.5,0.4-0.7,0.6c-0.2,0.1-0.3,0.3-0.5,0.4l-0.3,0.3c-0.1,0.1-0.1,0.1-0.2,0.2
		c-0.2,0.2-0.4,0.4-0.6,0.6c-0.2,0.3-0.5,0.5-0.7,0.8c-0.1,0.1-0.1,0.2-0.2,0.3c-0.2,0.2-0.3,0.4-0.5,0.7c-0.1,0.1-0.2,0.3-0.3,0.4
		c-0.2,0.3-0.4,0.6-0.5,0.9c-0.5,0.8-0.9,1.7-1.2,2.6c-0.1,0.2-0.2,0.5-0.3,0.7c0,0.1-0.1,0.2-0.1,0.3c-0.1,0.3-0.2,0.5-0.2,0.8
		c-0.1,0.2-0.1,0.3-0.1,0.5c-0.1,0.3-0.1,0.6-0.2,0.9c0,0.1-0.1,0.3-0.1,0.4c0,0.2-0.1,0.5-0.1,0.7c0,0.1,0,0.2,0,0.3
		c0,0.3-0.1,0.5-0.1,0.8c0,0.2,0,0.4,0,0.5c0,0.4,0,0.8,0,1.2V472l-152.3,89.3V146.5c0-1.3-0.1-2.6-0.4-3.8
		c-0.2-0.8-0.4-1.6-0.7-2.4c-0.3-0.8-0.6-1.5-1-2.3c-1.3-2.6-3.2-5-5.6-6.7c-0.3-0.2-0.6-0.4-0.9-0.6c-0.4-0.2-0.7-0.5-1.1-0.7
		L255.4,15.5c-5.9-3.4-13.1-3.3-18.9,0L31.5,133l-0.2,0.1c-0.4,0.2-0.7,0.4-1.1,0.7c-0.3,0.2-0.5,0.4-0.8,0.6
		c-2.4,1.8-4.4,4.2-5.7,6.9c-0.4,0.7-0.7,1.5-0.9,2.2c-0.2,0.5-0.3,1-0.4,1.4c-0.2,0.7-0.3,1.5-0.4,2.2c-0.1,0.8-0.2,1.7-0.2,2.5
		V823c0,6.9,3.7,13.2,9.7,16.6l396.9,224.7c0.4,0.2,0.7,0.4,1.1,0.6c0.3,0.1,0.6,0.3,0.8,0.4c0.5,0.2,1,0.4,1.5,0.6
		c0.3,0.1,0.7,0.2,1.1,0.3c0.5,0.1,0.9,0.2,1.4,0.3c0.4,0.1,0.8,0.2,1.2,0.2c0.8,0.1,1.6,0.2,2.5,0.2c2.2,0,4.4-0.4,6.4-1.1
		c0.3-0.1,0.6-0.2,0.8-0.3c0.3-0.1,0.7-0.3,1-0.5c0.2-0.1,0.4-0.2,0.6-0.3c0.1-0.1,0.3-0.1,0.4-0.2l0.3-0.2l400.7-224.7
		c6-3.4,9.7-9.7,9.7-16.6V608.4l190.9-109.1c5.9-3.4,9.6-9.7,9.6-16.5v-224C1058.3,257,1058.1,255.3,1057.7,253.6z M456.9,610
		l179.7-105.3l163.9,92.8L438.1,806.2l-155-94.2L456.9,610z M427.1,583.5L281,669l-16.1,9.4V277.8L427,180.2v403.3H427.1z M245.9,54
		l162.6,93l-162.8,98L79,149.7L245.9,54z M59.8,182.5l167.1,95.6v433.6c0,0.3,0,0.5,0,0.8l0,0c0,0.3,0,0.5,0.1,0.8
		c0,0.3,0.1,0.6,0.1,0.9c0,0.2,0.1,0.4,0.1,0.6c0,0.2,0.1,0.4,0.1,0.7c0.1,0.3,0.1,0.7,0.2,1c0.1,0.3,0.2,0.6,0.3,1
		c0.1,0.3,0.2,0.5,0.3,0.8s0.2,0.6,0.4,0.9c0.4,1.1,1,2.1,1.6,3c0.2,0.3,0.4,0.6,0.6,0.9c1.4,2,3.3,3.7,5.4,5l0.4,0.3L418.8,839
		v176.3L59.8,812V182.5z M819.8,812l-362.9,203.5V839.3l362.9-209V812z M819.8,564.7l-164.3-93.1V290.9l57.2,31.7l107.2,59.3v182.8
		H819.8z M838.8,348.9L838.8,348.9L675,258.2l163.7-94.7l162.1,94.7L838.8,348.9z M1020.2,471.7l-162.4,92.8V381.8l162.4-90.8
		L1020.2,471.7L1020.2,471.7z"/>
</g>
</svg>
