<?xml version="1.0" encoding="utf-8"?>
<!-- Generator: Adobe Illustrator 25.2.1, SVG Export Plug-In . SVG Version: 6.00 Build 0)  -->
<svg version="1.1" id="Layer_1" xmlns="http://www.w3.org/2000/svg" xmlns:xlink="http://www.w3.org/1999/xlink" x="0px" y="0px"
	 viewBox="0 0 128 128" style="enable-background:new 0 0 128 128;" xml:space="preserve">
<style type="text/css">
	.st0{fill:#00AF5A;}
	.st1{fill:#FFFFFF;}
	.st2{fill:#FF4B39;}
	.st3{fill:none;stroke:#71772F;stroke-linecap:round;stroke-linejoin:round;stroke-miterlimit:10;}
	.st4{fill:none;stroke:#E5BD4A;stroke-linecap:round;stroke-linejoin:round;stroke-miterlimit:10;}
	.st5{fill:none;stroke:#35C6DF;stroke-linecap:round;stroke-miterlimit:10;}
	.st6{fill:none;stroke:#006E73;stroke-linecap:round;stroke-miterlimit:10;}
	.st7{fill:none;stroke:#006E73;stroke-miterlimit:10;}
	.st8{fill:#F9AA50;}
	.st9{fill:#783C46;}
	.st10{fill:#874150;}
	.st11{fill:#AAD264;}
	.st12{fill:#FFD250;}
</style>
<image style="overflow:visible;" width="1920" height="1011" xlink:href="B71AFD3C.jpg"  transform="matrix(1 0 0 1 -2248 -656)">
</image>
<image style="overflow:visible;" width="512" height="512" xlink:href="B71AFD3B.jpg"  transform="matrix(0.2916 0 0 0.2916 -16 -170)">
</image>
<path class="st0" d="M42.7,23v82H13.5C6,105,0,99,0,91.5v-55C0,29,6,23,13.5,23H42.7z"/>
<rect x="42.7" y="23" class="st1" width="42.7" height="82"/>
<path class="st2" d="M128,36.5v55c0,7.5-6,13.5-13.5,13.5H85.3V23h29.2C122,23,128,29,128,36.5z"/>
<image style="overflow:visible;" width="512" height="512" xlink:href="B71AFD43.jpg"  transform="matrix(0.1719 0 0 0.1719 -157 -165)">
</image>
<g>
	<path class="st3" d="M50.8,62.9c0,0-1,13,13,13s14-13,14-13"/>
	<polyline class="st4" points="51.9,71.5 53.5,71.5 53.9,69.8 	"/>
	<polyline class="st4" points="49.8,65.7 51.1,66.5 52.3,65.3 	"/>
	<polyline class="st4" points="57.4,76 58.6,75 57.8,73.5 	"/>
	<polyline class="st4" points="71.3,72.9 71.4,74.4 73,74.8 	"/>
	<polyline class="st4" points="74.1,70 74.4,71.5 76.1,71.5 	"/>
	<polyline class="st4" points="75.7,66.4 76.7,67.6 78.2,66.9 	"/>
	<path class="st5" d="M56.3,69.8c0,0,2.7,4,8.1,4c5.4,0,7.4-4,7.4-4"/>
	<path class="st6" d="M53.8,63.9c0,0,3,6,11,6s9-3,9-3"/>
	<line class="st7" x1="64.6" y1="70" x2="64.6" y2="72.4"/>
	<path class="st8" d="M66.8,74.4h-5c-0.3,0-0.5-0.2-0.5-0.5v-2c0-0.3,0.2-0.5,0.5-0.5h5c0.3,0,0.5,0.2,0.5,0.5v2
		C67.3,74.1,67.1,74.4,66.8,74.4z"/>
	<path class="st9" d="M68,66.5C68,66.5,68,66.5,68,66.5c-0.1,1.2-0.3,1.9-0.3,1.9s-0.3-0.3-0.8-0.7c-0.1-0.1-0.2-0.1-0.2-0.2
		c-0.3-0.3-0.7-0.7-1.2-1.2c-0.3-0.3-0.6-0.6-0.9-1c-2.1-2.4-4.1-5.8-2.5-8.2l-1.4-2.8c0,0,2.8-1.4,5.6,4.2c1.1,2.1,1.5,4,1.7,5.6
		C68,65,68,65.8,68,66.5z"/>
	<path class="st9" d="M68,66.5C68,66.5,68,66.5,68,66.5c-0.1,1.2-0.3,1.9-0.3,1.9s-0.3-0.3-0.8-0.7c-0.1-0.1-0.2-0.1-0.2-0.2
		c-0.3-0.3-0.7-0.7-1.2-1.2c-0.3-0.3-0.6-0.6-0.9-1c-2.1-2.4-4.1-5.8-2.5-8.2l-1.4-2.8c0,0,2.8-1.4,5.6,4.2c1.1,2.1,1.5,4,1.7,5.6
		C68,65,68,65.8,68,66.5z"/>
	<path class="st10" d="M75.4,67.6L67.2,60c-0.2-0.5-0.4-1.1-0.7-1.6c-0.1-0.3-0.3-0.5-0.4-0.8c0.1-0.9,0.5-4.2-1.9-5.4
		c0,0,7.9-1.4,10.3,5.6C76.8,64.8,75.4,67.6,75.4,67.6z"/>
	<path class="st10" d="M72.6,66.2l-3.1,2.1l-1.3-1.4c0.1-0.8,0.1-1.9,0-3.2L72.6,66.2z"/>
	<path class="st11" d="M57.1,53.5c0,0-2.8,2.8,0,4.2s-1.3,2.5-0.6,4.8c0.6,2.3,3.5,3.7,2,3.7s-4.2-2.8-4.2-4.2h-1.4
		c0,0,0,4.4,5.6,5.7c0,0,2.8-0.1,2.8-2.9s-4.9-0.7-2.1-3.5c2.8-2.8,1.4-5.6-1.4-5.6L57.1,53.5z"/>
	<polygon class="st8" points="60.6,54.2 58.5,56.4 58.5,57.8 61.5,56 	"/>
	<path class="st10" d="M62.9,63.6c0.6,1,1.4,1.8,2.1,2.6h-3.7v-1.4l1.4-1.4L62.9,63.6z"/>
	<path class="st12" d="M66.4,67.5c0.1,0.1,0.3,0.3,0.4,0.4v0.6l-1.5,1.4h-2.5v-0.6L66.4,67.5z"/>
</g>
</svg>
