<?xml version="1.0" encoding="utf-8"?>
<!-- Generator: Adobe Illustrator 25.2.1, SVG Export Plug-In . SVG Version: 6.00 Build 0)  -->
<svg version="1.1" id="Layer_1" xmlns="http://www.w3.org/2000/svg" xmlns:xlink="http://www.w3.org/1999/xlink" x="0px" y="0px"
	 viewBox="0 0 1080 1080" style="enable-background:new 0 0 1080 1080;" xml:space="preserve">
<style type="text/css">
	.st0{fill:#FFFFFF;}
</style>
<path class="st0" d="M93.4,139.8l2.9-5.8c4.2-7.6,9.3-15,15.8-21.6c6.5-6.6,14.3-12.4,23.2-16.2c8.9-3.8,18.4-5.6,27.6-5.8
	c18.3-0.1,34.8,5.9,48.7,12.4c13.9,6.5,27,13.8,39.8,21.5c25,15,48.4,32,68.2,53.6c9.4-1.8,18.5-2.4,27.7-2.7
	c9.9-0.2,19.9,0.1,29.8,1.1c19.8,1.8,39.2,6,58.4,11.2c38.2,10.5,75.3,25.4,110.2,44.6c17.4,9.5,34.3,20.1,50.5,31.9
	c16.1,11.7,31.6,24.3,46.1,38c1.8,1.7,3.7,3.3,5.5,5.1l5.3,5.3c3.5,3.5,7.1,7,10.5,10.6c6.7,7.3,13.6,14.6,19.7,22.2l18.9,22.7
	c6.2,7.7,11.8,15.6,17.8,23.4c5.9,7.8,11.8,15.6,17.1,23.8l16.4,24.3c2.8,4,5.3,8.2,7.9,12.3l7.7,12.4l7.7,12.4l3.8,6.2l3.7,6.3
	c9.7,16.8,19.7,33.6,28.8,50.7c4.6,8.5,9.4,17,13.8,25.7l13.2,26c17.3,34.8,33.9,69.8,49.3,105.4c4,8.8,7.6,17.8,11.5,26.7
	c3.8,8.9,7.5,17.9,10.9,26.9c6.3,17.4,11.8,35.1,14.2,54c14,2.9,27.5,6.9,40.9,11.3c14.3,4.7,28.5,10,42.4,15.8
	c24.2,10.2,47.8,21.8,70.7,34.9V81.1c0-44.8-36.3-81.1-81.1-81.1H81.1C36.3,0,0,36.3,0,81.1v917.8c0,44.8,36.3,81.1,81.1,81.1h917.8
	c18.2,0,35-6,48.5-16.1c-4.3-6.5-8.4-13.1-12.2-20.1l-1.8-3.3c-0.9-1.6-0.3-3.7,1.4-4.5l0.1,0l0,0c2.6-4.7,6.2-7.8,9.6-10.7
	c1.7-1.3,3.5-2.6,5.3-3.8c1.8-1.1,3.6-2.2,5.5-3.2c7.3-4.1,14.8-7.1,22.4-9.8c0.6-0.2,1.2-0.4,1.8-0.6c0.3-2.9,0.5-5.9,0.5-9v-90.3
	c-2.7-1.6-5.5-3.2-8.2-4.7L995,860.8c-25.6-14.6-51.3-29.3-76.4-45.9l-2.2-1.4c-0.7-0.5-1.1-1.2-1.2-2l0,0
	c-5.7-8-10.7-16.4-15.4-24.8c-4.7-8.4-8.9-17-13-25.7c-4.1-8.6-7.7-17.5-11.7-26.2c-4-8.7-7.8-17.5-11.8-26.2
	c-15.9-34.8-32.9-69.1-50.6-103l-13.5-25.3c-2.2-4.2-4.6-8.4-6.9-12.5l-7-12.5c-9.1-16.8-19-33.1-28.7-49.5l-3.6-6.2l-3.8-6l-7.6-12
	l-7.6-12c-2.5-4-5.1-8.1-7.8-11.9c-10.8-15.6-21.2-31.5-32.8-46.5c-5.7-7.5-11.1-15.3-17-22.7l-18-21.8
	c-11.9-14.7-24.8-27.9-38.3-40.7c-13.4-12.9-28-24.5-42.8-35.7c-14.9-11.2-30.5-21.3-46.8-30.5c-32.4-18.4-67-33-102.9-43.4
	c-36-10-72.7-17.7-109.7-25.8l-2.5-0.5c-0.5-0.1-1-0.4-1.3-0.7l0,0c-26.5-12.5-51.1-27.3-76.1-40.8c-12.5-6.6-25.3-12.7-38.1-17.8
	l-4.8-1.9l-4.6-1.5l-4.5-1.5l-4.5-1c-6-1.5-11.8-1.7-17.2-1.5c-5.4,0.5-10.2,1.8-14.6,4c-4.4,2.2-8.2,5.5-11.7,9.5
	c-3.5,4-6.5,8.8-9,14.1l-1.8,4.1l-0.9,2.3c0.1,0.2,0.2,0.5,0.3,0.9c0.5,1.5,1.7,3.9,3.1,6.4c1.4,2.5,3.1,5.1,4.9,7.8
	c3.7,5.3,7.9,10.8,12.2,16.2c8.8,10.9,18.3,21.8,27.6,33.1c9.4,11.3,18.9,22.8,28,35.2c4.5,6.2,8.9,12.7,13.1,19.6
	c4.2,7,8.2,14.3,11.6,22.9c1.7,4.3,3.2,8.9,4.2,14.1c0.3,1.3,0.5,2.7,0.7,4l0.4,1.9l0.3,1.8l0.5,2.1c1.4,5.7,3.4,12,5.7,18.4
	c4.6,12.8,10.3,25.8,16,38.8c5.7,13,11.8,26,18,39c6.2,13,12.8,25.8,18.7,39c5.9,13.2,11.3,26.7,16.1,40.5
	c4.6,13.9,8.9,28.1,11.1,43.4l0.6,4c0.1,0.5-0.1,1.1-0.4,1.5h0c-4.4,11.6-7.6,24-10.4,36.5c-2.8,12.5-5.1,25.2-7.3,37.9
	c-2.2,12.7-4.2,25.5-5.9,38.3l-2.5,19.2c-0.8,6.3-1.5,12.6-2,19c-1.1,12.7-1.7,25.3-1.6,37.9c0,12.6,0.6,25.1,1.9,37.4
	c1.4,12.3,3.5,24.5,6.6,36.3c3.1,11.8,6.9,23.2,12,34c5,10.7,11.2,20.7,18.5,29.4c7.3,8.6,15.9,16.1,24.7,20.7
	c2.7,1.4,5.5,2.5,7.9,3.2c0-0.2,0.1-0.3,0.1-0.5l1-5c0.7-3.4,1.4-6.6,2.1-9.8c1.4-6.5,2.9-12.9,4.4-19.3c3-12.8,6.1-25.5,9.5-38.1
	c3.4-12.6,7.1-25.2,11.1-37.6c4-12.4,8.4-24.8,13.2-37c4.8-12.2,9.9-24.4,16-36.3l0.4-0.7c1.5-3,5.1-4.1,8.1-2.6
	c2,1,3.2,3.1,3.3,5.2c0.4,14.4,3.6,28.5,8.4,42.3c4.7,13.8,11,27.1,17.8,40.2c13.9,26.1,30.6,50.9,48.4,75
	c8.9,12,18.2,23.8,27.6,35.6c9.4,11.7,18.8,23.4,28.7,34.9c19.3,23.1,39.3,45.9,59.1,68.8l0.1,0.1c2.2,2.5,1.9,6.3-0.6,8.5
	c-2.2,1.9-5.4,1.9-7.6,0.2c-12.3-9.5-23.7-19.7-35-30.1c-11.2-10.5-22.1-21.4-32.7-32.5c-21-22.5-41-45.9-59-71.1
	c-4.6-6.2-8.9-12.6-13.3-19c-4.2-6.5-8.5-13-12.4-19.7c-4.1-6.6-7.9-13.4-11.6-20.2l-5.3-10.4c-1.8-3.5-3.3-7.1-5-10.6
	c-1.7-3.5-3.2-7.2-4.7-10.8c-1.5-3.6-3-7.3-4.2-11c-1.8-4.8-3.3-9.7-4.7-14.7c-1.3,8.1-2.7,16.1-4.2,24.1
	c-2.5,12.8-5.2,25.5-8.1,38.2l-9.2,37.8c-1.5,6.3-3,12.6-4.4,18.8c-0.7,3.1-1.4,6.2-2,9.3l-1,4.6c-0.3,1.6-0.5,2.8-0.8,4.2l-0.4,2
	l-0.2,0.9l-0.4,1.8c-0.2,1.2-0.7,2.5-1.2,3.7c-2,5.1-6.1,9.5-10.1,11.8c-4,2.4-7.7,3.4-10.9,3.9c-3.3,0.5-6,0.4-8.7,0.3
	c-10.3-1-18-4.3-25.2-8.1c-14.2-7.7-25.1-18.3-34.4-29.7c-9.2-11.5-16.4-24.1-22.1-37.1c-11.5-26.1-16.7-53.7-18.5-80.9
	c-0.9-13.6-0.9-27.2-0.3-40.7c0.7-13.5,2.2-26.8,4.1-40.1c1-6.6,2.1-13.2,3.3-19.8c1.2-6.5,2.5-13,3.9-19.4
	c2.8-12.9,5.8-25.7,9-38.5c3.2-12.8,6.9-25.5,11-38.1l3.2-9.4l3.5-9.4c1.2-3.1,2.6-6.2,3.9-9.3c0.8-1.8,1.7-3.7,2.7-5.5
	c-5.2-4.5-9.8-9.4-14.3-14.3c-5.1-5.6-9.8-11.4-14.3-17.2c-9-11.8-17.1-24.1-24.5-36.8c-7.4-12.7-13.9-25.9-20.5-39.1
	c-6.6-13.2-13-26.5-19.2-40.1c-6.1-13.6-12-27.4-17.2-42c-2.7-7.3-5.1-14.8-7.1-23.3l-0.8-3.2l-0.6-3.5l-0.8-4.9
	c-0.3-1.9-1-4.3-1.9-6.8c-1.8-5-4.6-10.6-7.8-16.2c-3.2-5.6-6.9-11.3-10.8-16.9c-7.7-11.4-16.3-22.7-25.1-34.1
	c-8.8-11.4-17.8-23-26.6-35.3c-4.4-6.2-8.8-12.5-13-19.4c-2.1-3.5-4.2-7.1-6.1-11.1c-2-4-3.9-8.2-5.3-13.7c-0.7-2.7-1.3-5.9-1.5-9.6
	c-0.2-3.6,0.2-8.2,2.1-13L93.4,139.8z M377.3,359.1c0.2-6.6-41.6-64.4-41.6-64.4s25.1-19,50.7,12.2C412,338,377.3,359.1,377.3,359.1
	z M1057.8,1039l-5,1.2c-0.3,0.1-0.6,0.2-0.9,0.3c3.8,2.5,7.6,5.1,11.3,7.7c2.9-3.7,5.4-7.7,7.6-11.9c-2.7,0.5-5.3,1-7.9,1.5
	C1061.2,1038.2,1059.5,1038.7,1057.8,1039z"/>
</svg>
