<?xml version="1.0" encoding="utf-8"?>
<!-- Generator: Adobe Illustrator 25.2.1, SVG Export Plug-In . SVG Version: 6.00 Build 0)  -->
<svg version="1.1" id="Layer_1" xmlns="http://www.w3.org/2000/svg" xmlns:xlink="http://www.w3.org/1999/xlink" x="0px" y="0px"
	 viewBox="0 0 1080 1080" style="enable-background:new 0 0 1080 1080;" xml:space="preserve">
<style type="text/css">
	.st0{fill:#FCFCFC;}
</style>
<path class="st0" d="M1021,0H59C26.4,0,0,26.4,0,59v962c0,32.6,26.4,59,59,59h962c32.6,0,59-26.4,59-59V59
	C1080,26.4,1053.6,0,1021,0z M146,692c-6.4,6.4-14.2,9.7-23.4,9.7c-9.6,0-17.5-3.2-24-9.7c-6.4-6.4-9.6-14.5-9.6-24
	c0-9.5,3.2-17.4,9.6-23.9c6.4-6.4,14.4-9.7,24-9.7c9.2,0,17,3.2,23.4,9.7c6.4,6.4,9.6,14.4,9.6,23.9
	C155.6,677.5,152.4,685.5,146,692z M474.8,698.4h-52.4L264.6,459.8v238.6h-52.4V378.4h52.4l157.8,238.1V378.4h52.4V698.4z
	 M720.3,421.1H596.1v93.8h110.4v42.7H596.1v97.9h124.2v42.7H543.6V378.4h176.6V421.1z M991.1,421.6h-85v276.8h-52.4V421.6h-85.6
	v-42.7h223V421.6z"/>
</svg>
