<?xml version="1.0" encoding="utf-8"?>
<!-- Generator: Adobe Illustrator 25.2.1, SVG Export Plug-In . SVG Version: 6.00 Build 0)  -->
<svg version="1.1" id="Layer_1" xmlns="http://www.w3.org/2000/svg" xmlns:xlink="http://www.w3.org/1999/xlink" x="0px" y="0px"
	 viewBox="0 0 1080 1080" style="enable-background:new 0 0 1080 1080;" xml:space="preserve">
<style type="text/css">
	.st0{fill:#FFFFFF;}
</style>
<g>
	<path class="st0" d="M340.9,491.3c4.9,5,6.7,15.5,5.4,31c-0.8,9-4,15.5-10.4,20.4c-12.3,9.6-33.4,11.2-48.7,10.7l11.9-68.3
		C317.8,484.2,334.3,484.4,340.9,491.3z"/>
	<path class="st0" d="M411,449.1c-18.6-20.5-49.6-19-49.9-19l-0.8,0h-124l-48.9,255.2h31.9l13.5-77.3l16,0.7
		c78,3.2,162.4-0.9,175.6-89.7C429,487.5,424.6,464,411,449.1z M374.5,524.6c-1.4,16.7-8.7,30.7-21.2,40.4
		c-17.7,13.7-42.1,16.8-60.3,16.8c-12.7,0-22.4-1.5-24.7-1.8l-14.1-2.4l20.9-119.7l12.7-0.7c30.4-1.6,56.6-3,73.4,14.3
		C372.2,482.8,376.6,500.2,374.5,524.6z"/>
	<path class="st0" d="M659.6,441c5.8,6.8,7.8,15.8,6.1,27.5c-6.7,46.2-20,120-25.2,148.3h-42.3l23.2-127.3c0.5-2.8,2.4-15.6-6-26.1
		c-4.4-5.5-13-12-29.2-12h-66l-33.5,165.4H447l53.8-267h37.4l-11,75.6H619C626.7,425.5,648.9,428.5,659.6,441z"/>
	<path class="st0" d="M827.7,492.5c4.9,5,6.7,15.5,5.4,31c-0.8,9-4,15.5-10.4,20.4c-12.3,9.6-33.4,11.2-48.7,10.7l11.9-68.3
		C804.6,485.4,821.1,485.6,827.7,492.5z"/>
	<path class="st0" d="M897.8,450.3c-18.6-20.5-49.6-19-49.9-19l-0.8,0h-124l-48.9,255.2h31.9l13.5-77.3l16,0.7
		c78,3.2,162.4-0.9,175.6-89.7C915.9,488.7,911.4,465.2,897.8,450.3z M861.4,525.8c-1.4,16.7-8.7,30.7-21.2,40.4
		C822.5,580,798,583,779.8,583c-12.7,0-22.4-1.5-24.7-1.8l-14.1-2.4l20.9-119.7l12.7-0.7c30.4-1.6,56.6-3,73.4,14.3
		C859,484,863.4,501.4,861.4,525.8z"/>
	<path class="st0" d="M540,257.6C241.8,257.6,0,384,0,540s241.8,282.4,540,282.4S1080,696,1080,540S838.2,257.6,540,257.6z
		 M939.2,524.4c-17.3,115.8-132.7,116.5-196,114.2l-13.4,76.3h-90.1l13.4-69.7h-89.1L593.5,484c0.2-1.1,0-2.5-0.3-2.9
		c-0.3-0.3-2.2-1.4-7.1-1.4h-42.8l-33.5,165.4h-93.9v-18l0.3-1.4l7.2-35.6c-42.7,49-119.6,48.9-167,47.2l-13.4,76.3H153l59.8-311.9
		h147.1c5.3-0.2,45.2-0.9,71.8,28.1c8,8.7,14,19.1,17.7,31.1l28.1-139.5H571l-11,75.6h59.2c1.7,0,40.5,0.6,61.8,25.4
		c5.1,6,8.8,12.7,11,20.1l7.6-39.6h147.1c5.3-0.2,45.2-0.9,71.8,28.1C938.3,452.5,945.2,483.9,939.2,524.4z"/>
</g>
</svg>
