<?xml version="1.0" encoding="utf-8"?>
<!-- Generator: Adobe Illustrator 25.2.1, SVG Export Plug-In . SVG Version: 6.00 Build 0)  -->
<svg version="1.1" id="Layer_1" xmlns="http://www.w3.org/2000/svg" xmlns:xlink="http://www.w3.org/1999/xlink" x="0px" y="0px"
	 viewBox="0 0 1080 1080" style="enable-background:new 0 0 1080 1080;" xml:space="preserve">
<style type="text/css">
	.st0{fill:#FFFFFF;}
	.st1{opacity:0.7;fill:#FFFFFF;}
</style>
<g>
	<path class="st0" d="M851.8,517.4L827,528.8L703.2,586l119.4-30.3c0,0-43.7,121.2-99.3,138.5C667.6,711.5,613,792.6,613,792.6
		c5.9-155.1,128.6-399.3,214-551.5c45.6-81.3,80.5-136.4,81.3-137.6c-29.6,32.6-56.6,65.2-81.3,97.7
		C612.7,483.9,576.7,757.8,578.9,919.8c1.3,92.6,15,148.6,15,148.6c-18.6-16.1-25.7-82.6-29-148.6c-2.2-44-2.7-87.8-3.8-116.2
		c-2.7-71.1-39.2-144-39.2-144l10-57.4c9.1,0,42.8,72,42.8,72c-1.8-17.3-31-101.2-31-101.2l13.7-45.6l36.5,76.6
		c0.9-30.1-29.2-106.6-29.2-106.6S652.1,243,714.1,151.9c14-20.6,31.7-43.1,51.6-63.9c67.9-71.2,161-122.7,218.2-12.6
		C1057.7,217.5,851.8,517.4,851.8,517.4z"/>
	<path class="st1" d="M827,185.6v15.7C612.7,483.9,576.7,757.8,578.9,919.8H188.6c-59.9,0-108.4-48.5-108.4-108.4V185.6
		c0-59.9,48.6-108.4,108.4-108.4h530c16.9,0,33,3.9,47.2,10.8C802,105.5,827,142.6,827,185.6z"/>
	<path class="st1" d="M613,792.6c5.9-155.1,128.6-399.3,214-551.5v287.6L703.2,586l119.4-30.3c0,0-43.7,121.2-99.3,138.5
		C667.6,711.5,613,792.6,613,792.6z"/>
</g>
</svg>
