<?xml version="1.0" encoding="utf-8"?>
<!-- Generator: Adobe Illustrator 25.2.1, SVG Export Plug-In . SVG Version: 6.00 Build 0)  -->
<svg version="1.1" id="Layer_1" xmlns="http://www.w3.org/2000/svg" xmlns:xlink="http://www.w3.org/1999/xlink" x="0px" y="0px"
	 viewBox="0 0 128 128" style="enable-background:new 0 0 128 128;" xml:space="preserve">
<style type="text/css">
	.st0{fill:#BE0A2F;}
	.st1{fill:#FFFFFF;}
	.st2{fill:#002768;}
	.st3{clip-path:url(#SVGID_2_);}
</style>
<path class="st0" d="M127.9,30.7H0.1C1,24.1,6.7,19,13.5,19h100.9C121.3,19,127,24.1,127.9,30.7z"/>
<rect y="30.7" class="st1" width="128" height="11.7"/>
<rect x="0" y="42.4" class="st0" width="128" height="11.7"/>
<rect x="0" y="54.1" class="st1" width="128" height="11.7"/>
<rect x="0" y="65.9" class="st0" width="128" height="11.7"/>
<rect y="77.6" class="st1" width="128" height="11.7"/>
<path class="st0" d="M127.9,89.3c-0.9,6.6-6.5,11.7-13.4,11.7H13.5C6.7,101,1,95.9,0.1,89.3H127.9z"/>
<image style="overflow:visible;" width="1920" height="1011" xlink:href="6B5330A2.jpg"  transform="matrix(1 0 0 1 -2248 -656)">
</image>
<path class="st2" d="M64,19v47H0V32.5c0-0.6,0-1.2,0.1-1.8C1,24.1,6.7,19,13.5,19H64z"/>
<g>
	<defs>
		<rect id="SVGID_1_" x="5.8" y="25.3" width="56.7" height="37"/>
	</defs>
	<clipPath id="SVGID_2_">
		<use xlink:href="#SVGID_1_"  style="overflow:visible;"/>
	</clipPath>
	<g class="st3">
		<g>
			<polygon class="st1" points="8.1,27.4 9.1,25.3 10.2,27.3 12.5,27.7 10.8,29.3 11.2,31.6 9.1,30.5 7.1,31.6 7.5,29.3 5.8,27.7 
							"/>
		</g>
		<g>
			<polygon class="st1" points="19.8,27.4 20.8,25.3 21.8,27.3 24.1,27.7 22.5,29.3 22.9,31.6 20.8,30.5 18.8,31.6 19.1,29.3 
				17.5,27.7 			"/>
		</g>
		<g>
			<polygon class="st1" points="31.5,27.4 32.5,25.3 33.5,27.3 35.8,27.7 34.2,29.3 34.6,31.6 32.5,30.5 30.4,31.6 30.8,29.3 
				29.1,27.7 			"/>
		</g>
		<g>
			<polygon class="st1" points="43.1,27.4 44.2,25.3 45.2,27.3 47.5,27.7 45.8,29.3 46.3,31.6 44.2,30.5 42.1,31.6 42.5,29.3 
				40.8,27.7 			"/>
		</g>
		<g>
			<polygon class="st1" points="54.8,27.4 55.8,25.3 56.9,27.3 59.2,27.7 57.5,29.3 57.9,31.6 55.9,30.5 53.8,31.6 54.2,29.3 
				52.5,27.7 			"/>
		</g>
		<g>
			<polygon class="st1" points="8.1,36.7 9.1,34.6 10.2,36.7 12.5,37 10.8,38.7 11.2,41 9.1,39.9 7.1,41 7.5,38.7 5.8,37.1 			"/>
		</g>
		<g>
			<polygon class="st1" points="19.8,36.7 20.8,34.6 21.8,36.7 24.1,37 22.5,38.7 22.9,41 20.8,39.9 18.8,41 19.1,38.7 17.5,37.1 
							"/>
		</g>
		<g>
			<polygon class="st1" points="31.5,36.7 32.5,34.6 33.5,36.7 35.8,37 34.2,38.7 34.6,41 32.5,39.9 30.4,41 30.8,38.7 29.1,37.1 
							"/>
		</g>
		<g>
			<polygon class="st1" points="43.1,36.7 44.2,34.6 45.2,36.7 47.5,37 45.8,38.7 46.3,41 44.2,39.9 42.1,41 42.5,38.7 40.8,37.1 
							"/>
		</g>
		<g>
			<polygon class="st1" points="54.8,36.7 55.8,34.6 56.9,36.7 59.2,37 57.5,38.7 57.9,41 55.9,39.9 53.8,41 54.2,38.7 52.5,37.1 
							"/>
		</g>
		<g>
			<polygon class="st1" points="8.1,46.1 9.1,44 10.2,46.1 12.5,46.4 10.8,48 11.2,50.3 9.1,49.2 7.1,50.3 7.5,48 5.8,46.4 			"/>
		</g>
		<g>
			<polygon class="st1" points="19.8,46.1 20.8,44 21.8,46.1 24.1,46.4 22.5,48 22.9,50.3 20.8,49.2 18.8,50.3 19.1,48 17.5,46.4 
							"/>
		</g>
		<g>
			<polygon class="st1" points="31.5,46.1 32.5,44 33.5,46.1 35.8,46.4 34.2,48 34.6,50.3 32.5,49.2 30.4,50.3 30.8,48 29.1,46.4 
							"/>
		</g>
		<g>
			<polygon class="st1" points="43.1,46.1 44.2,44 45.2,46.1 47.5,46.4 45.8,48 46.3,50.3 44.2,49.2 42.1,50.3 42.5,48 40.8,46.4 
							"/>
		</g>
		<g>
			<polygon class="st1" points="54.8,46.1 55.8,44 56.9,46.1 59.2,46.4 57.5,48 57.9,50.3 55.9,49.2 53.8,50.3 54.2,48 52.5,46.4 
							"/>
		</g>
		<g>
			<polygon class="st1" points="8.1,55.4 9.1,53.3 10.2,55.4 12.5,55.8 10.8,57.4 11.2,59.7 9.1,58.6 7.1,59.7 7.5,57.4 5.8,55.8 
							"/>
		</g>
		<g>
			<polygon class="st1" points="19.8,55.4 20.8,53.3 21.8,55.4 24.1,55.8 22.5,57.4 22.9,59.7 20.8,58.6 18.8,59.7 19.1,57.4 
				17.5,55.8 			"/>
		</g>
		<g>
			<polygon class="st1" points="31.5,55.4 32.5,53.3 33.5,55.4 35.8,55.8 34.2,57.4 34.6,59.7 32.5,58.6 30.4,59.7 30.8,57.4 
				29.1,55.8 			"/>
		</g>
		<g>
			<polygon class="st1" points="43.1,55.4 44.2,53.3 45.2,55.4 47.5,55.8 45.8,57.4 46.3,59.7 44.2,58.6 42.1,59.7 42.5,57.4 
				40.8,55.8 			"/>
		</g>
		<g>
			<polygon class="st1" points="54.8,55.4 55.8,53.3 56.9,55.4 59.2,55.8 57.5,57.4 57.9,59.7 55.9,58.6 53.8,59.7 54.2,57.4 
				52.5,55.8 			"/>
		</g>
	</g>
</g>
</svg>
