<?xml version="1.0" encoding="utf-8"?>
<!-- Generator: Adobe Illustrator 25.2.1, SVG Export Plug-In . SVG Version: 6.00 Build 0)  -->
<svg version="1.1" id="Layer_1" xmlns="http://www.w3.org/2000/svg" xmlns:xlink="http://www.w3.org/1999/xlink" x="0px" y="0px"
	 viewBox="0 0 1080 1080" style="enable-background:new 0 0 1080 1080;" xml:space="preserve">
<style type="text/css">
	.st0{opacity:0.3;fill:#FFFFFF;}
	.st1{opacity:0.6;fill:#FFFFFF;}
	.st2{fill:#FFFFFF;}
</style>
<g>
	<path class="st0" d="M426.1,38h562.4c38.1,0,68.9,30.9,68.9,68.9V540H357.2V106.9C357.2,68.9,388.1,38,426.1,38z"/>
	<path class="st1" d="M357.2,540h700.2v433.1c0,38.1-30.9,68.9-68.9,68.9H426.1c-38.1,0-68.9-30.9-68.9-68.9V540z"/>
	<path class="st2" d="M444.8,348.2H63.5c-22.6,0-40.9,18.3-40.9,40.9v361.6c0,22.6,18.3,40.9,40.9,40.9h381.4
		c22.6,0,40.9-18.3,40.9-40.9V389.1C485.7,366.5,467.4,348.2,444.8,348.2z M354.7,475.7H228.8v65.2H323v58.5h-94.2v125h-75.3v-309
		h201.2V475.7z"/>
</g>
</svg>
